%FSLAX45Y45*%
G04 Gerber Fmt 4.5, Leading zero omitted, Abs format (unit mm)*
G04 Created by KiCad (PCBNEW (6.0.2)) date 2023-01-10 12:42:33*
%MOMM*%
%LPD*%
G01*
G04 APERTURE LIST*
%TA.AperFunction,Profile*%
%ADD10C,0.100000*%
%TD*%
%ADD11C,0.200000*%
%ADD12C,0.170000*%
%ADD13C,0.320000*%
%ADD14C,0.400000*%
G04 APERTURE END LIST*
D10*
X8075000Y-5700000D02*
X21375000Y-5700000D01*
X21850000Y-6175000D02*
G75*
G03*
X21375000Y-5700000I-475000J0D01*
G01*
X21850000Y-32775000D02*
X21850000Y-6175000D01*
X8075000Y-5700000D02*
G75*
G03*
X7600000Y-6175000I0J-475000D01*
G01*
X7600000Y-32775000D02*
X7600000Y-6175000D01*
X7600000Y-32775000D02*
G75*
G03*
X8075000Y-33250000I475000J0D01*
G01*
X21375000Y-33250000D02*
X8075000Y-33250000D01*
X21375000Y-33250000D02*
G75*
G03*
X21850000Y-32775000I0J475000D01*
G01*
D11*
D12*
X10807000Y-14165000D02*
X10977000Y-14335000D01*
X10977000Y-14165000D02*
X10807000Y-14335000D01*
X10807000Y-18915000D02*
X10977000Y-19085000D01*
X10977000Y-18915000D02*
X10807000Y-19085000D01*
X10807000Y-20815000D02*
X10977000Y-20985000D01*
X10977000Y-20815000D02*
X10807000Y-20985000D01*
X10807000Y-29365000D02*
X10977000Y-29535000D01*
X10977000Y-29365000D02*
X10807000Y-29535000D01*
X10807000Y-31265000D02*
X10977000Y-31435000D01*
X10977000Y-31265000D02*
X10807000Y-31435000D01*
X11823000Y-14165000D02*
X11993000Y-14335000D01*
X11993000Y-14165000D02*
X11823000Y-14335000D01*
X11823000Y-18915000D02*
X11993000Y-19085000D01*
X11993000Y-18915000D02*
X11823000Y-19085000D01*
X11823000Y-20815000D02*
X11993000Y-20985000D01*
X11993000Y-20815000D02*
X11823000Y-20985000D01*
X11823000Y-29365000D02*
X11993000Y-29535000D01*
X11993000Y-29365000D02*
X11823000Y-29535000D01*
X11823000Y-31265000D02*
X11993000Y-31435000D01*
X11993000Y-31265000D02*
X11823000Y-31435000D01*
X12707000Y-14165000D02*
X12877000Y-14335000D01*
X12877000Y-14165000D02*
X12707000Y-14335000D01*
X12707000Y-16065000D02*
X12877000Y-16235000D01*
X12877000Y-16065000D02*
X12707000Y-16235000D01*
X12707000Y-18915000D02*
X12877000Y-19085000D01*
X12877000Y-18915000D02*
X12707000Y-19085000D01*
X12707000Y-20815000D02*
X12877000Y-20985000D01*
X12877000Y-20815000D02*
X12707000Y-20985000D01*
X12707000Y-23665000D02*
X12877000Y-23835000D01*
X12877000Y-23665000D02*
X12707000Y-23835000D01*
X12707000Y-26515000D02*
X12877000Y-26685000D01*
X12877000Y-26515000D02*
X12707000Y-26685000D01*
X12707000Y-29365000D02*
X12877000Y-29535000D01*
X12877000Y-29365000D02*
X12707000Y-29535000D01*
X12707000Y-31265000D02*
X12877000Y-31435000D01*
X12877000Y-31265000D02*
X12707000Y-31435000D01*
X13723000Y-14165000D02*
X13893000Y-14335000D01*
X13893000Y-14165000D02*
X13723000Y-14335000D01*
X13723000Y-16065000D02*
X13893000Y-16235000D01*
X13893000Y-16065000D02*
X13723000Y-16235000D01*
X13723000Y-18915000D02*
X13893000Y-19085000D01*
X13893000Y-18915000D02*
X13723000Y-19085000D01*
X13723000Y-20815000D02*
X13893000Y-20985000D01*
X13893000Y-20815000D02*
X13723000Y-20985000D01*
X13723000Y-23665000D02*
X13893000Y-23835000D01*
X13893000Y-23665000D02*
X13723000Y-23835000D01*
X13723000Y-26515000D02*
X13893000Y-26685000D01*
X13893000Y-26515000D02*
X13723000Y-26685000D01*
X13723000Y-29365000D02*
X13893000Y-29535000D01*
X13893000Y-29365000D02*
X13723000Y-29535000D01*
X13723000Y-31265000D02*
X13893000Y-31435000D01*
X13893000Y-31265000D02*
X13723000Y-31435000D01*
X17457000Y-14165000D02*
X17627000Y-14335000D01*
X17627000Y-14165000D02*
X17457000Y-14335000D01*
X17457000Y-18915000D02*
X17627000Y-19085000D01*
X17627000Y-18915000D02*
X17457000Y-19085000D01*
X17457000Y-20815000D02*
X17627000Y-20985000D01*
X17627000Y-20815000D02*
X17457000Y-20985000D01*
X17457000Y-29365000D02*
X17627000Y-29535000D01*
X17627000Y-29365000D02*
X17457000Y-29535000D01*
X17457000Y-31265000D02*
X17627000Y-31435000D01*
X17627000Y-31265000D02*
X17457000Y-31435000D01*
X18473000Y-14165000D02*
X18643000Y-14335000D01*
X18643000Y-14165000D02*
X18473000Y-14335000D01*
X18473000Y-18915000D02*
X18643000Y-19085000D01*
X18643000Y-18915000D02*
X18473000Y-19085000D01*
X18473000Y-20815000D02*
X18643000Y-20985000D01*
X18643000Y-20815000D02*
X18473000Y-20985000D01*
X18473000Y-29365000D02*
X18643000Y-29535000D01*
X18643000Y-29365000D02*
X18473000Y-29535000D01*
X18473000Y-31265000D02*
X18643000Y-31435000D01*
X18643000Y-31265000D02*
X18473000Y-31435000D01*
X19357000Y-14165000D02*
X19527000Y-14335000D01*
X19527000Y-14165000D02*
X19357000Y-14335000D01*
X19357000Y-16065000D02*
X19527000Y-16235000D01*
X19527000Y-16065000D02*
X19357000Y-16235000D01*
X19357000Y-18915000D02*
X19527000Y-19085000D01*
X19527000Y-18915000D02*
X19357000Y-19085000D01*
X19357000Y-20815000D02*
X19527000Y-20985000D01*
X19527000Y-20815000D02*
X19357000Y-20985000D01*
X19357000Y-23665000D02*
X19527000Y-23835000D01*
X19527000Y-23665000D02*
X19357000Y-23835000D01*
X19357000Y-26515000D02*
X19527000Y-26685000D01*
X19527000Y-26515000D02*
X19357000Y-26685000D01*
X19357000Y-29365000D02*
X19527000Y-29535000D01*
X19527000Y-29365000D02*
X19357000Y-29535000D01*
X19357000Y-31265000D02*
X19527000Y-31435000D01*
X19527000Y-31265000D02*
X19357000Y-31435000D01*
X20373000Y-14165000D02*
X20543000Y-14335000D01*
X20543000Y-14165000D02*
X20373000Y-14335000D01*
X20373000Y-16065000D02*
X20543000Y-16235000D01*
X20543000Y-16065000D02*
X20373000Y-16235000D01*
X20373000Y-18915000D02*
X20543000Y-19085000D01*
X20543000Y-18915000D02*
X20373000Y-19085000D01*
X20373000Y-20815000D02*
X20543000Y-20985000D01*
X20543000Y-20815000D02*
X20373000Y-20985000D01*
X20373000Y-23665000D02*
X20543000Y-23835000D01*
X20543000Y-23665000D02*
X20373000Y-23835000D01*
X20373000Y-26515000D02*
X20543000Y-26685000D01*
X20543000Y-26515000D02*
X20373000Y-26685000D01*
X20373000Y-29365000D02*
X20543000Y-29535000D01*
X20543000Y-29365000D02*
X20373000Y-29535000D01*
X20373000Y-31265000D02*
X20543000Y-31435000D01*
X20543000Y-31265000D02*
X20373000Y-31435000D01*
D13*
X8235000Y-6175000D02*
G75*
G03*
X8235000Y-6175000I-160000J0D01*
G01*
X8235000Y-32775000D02*
G75*
G03*
X8235000Y-32775000I-160000J0D01*
G01*
X21535000Y-6175000D02*
G75*
G03*
X21535000Y-6175000I-160000J0D01*
G01*
X21535000Y-32775000D02*
G75*
G03*
X21535000Y-32775000I-160000J0D01*
G01*
D14*
X11400000Y-14050000D02*
X11400000Y-14450000D01*
X11200000Y-14250000D02*
X11600000Y-14250000D01*
X11400000Y-18800000D02*
X11400000Y-19200000D01*
X11200000Y-19000000D02*
X11600000Y-19000000D01*
X11400000Y-20700000D02*
X11400000Y-21100000D01*
X11200000Y-20900000D02*
X11600000Y-20900000D01*
X11400000Y-29250000D02*
X11400000Y-29650000D01*
X11200000Y-29450000D02*
X11600000Y-29450000D01*
X11400000Y-31150000D02*
X11400000Y-31550000D01*
X11200000Y-31350000D02*
X11600000Y-31350000D01*
X13300000Y-14050000D02*
X13300000Y-14450000D01*
X13100000Y-14250000D02*
X13500000Y-14250000D01*
X13300000Y-15950000D02*
X13300000Y-16350000D01*
X13100000Y-16150000D02*
X13500000Y-16150000D01*
X13300000Y-18800000D02*
X13300000Y-19200000D01*
X13100000Y-19000000D02*
X13500000Y-19000000D01*
X13300000Y-20700000D02*
X13300000Y-21100000D01*
X13100000Y-20900000D02*
X13500000Y-20900000D01*
X13300000Y-23550000D02*
X13300000Y-23950000D01*
X13100000Y-23750000D02*
X13500000Y-23750000D01*
X13300000Y-26400000D02*
X13300000Y-26800000D01*
X13100000Y-26600000D02*
X13500000Y-26600000D01*
X13300000Y-29250000D02*
X13300000Y-29650000D01*
X13100000Y-29450000D02*
X13500000Y-29450000D01*
X13300000Y-31150000D02*
X13300000Y-31550000D01*
X13100000Y-31350000D02*
X13500000Y-31350000D01*
X18050000Y-14050000D02*
X18050000Y-14450000D01*
X17850000Y-14250000D02*
X18250000Y-14250000D01*
X18050000Y-18800000D02*
X18050000Y-19200000D01*
X17850000Y-19000000D02*
X18250000Y-19000000D01*
X18050000Y-20700000D02*
X18050000Y-21100000D01*
X17850000Y-20900000D02*
X18250000Y-20900000D01*
X18050000Y-29250000D02*
X18050000Y-29650000D01*
X17850000Y-29450000D02*
X18250000Y-29450000D01*
X18050000Y-31150000D02*
X18050000Y-31550000D01*
X17850000Y-31350000D02*
X18250000Y-31350000D01*
X19950000Y-14050000D02*
X19950000Y-14450000D01*
X19750000Y-14250000D02*
X20150000Y-14250000D01*
X19950000Y-15950000D02*
X19950000Y-16350000D01*
X19750000Y-16150000D02*
X20150000Y-16150000D01*
X19950000Y-18800000D02*
X19950000Y-19200000D01*
X19750000Y-19000000D02*
X20150000Y-19000000D01*
X19950000Y-20700000D02*
X19950000Y-21100000D01*
X19750000Y-20900000D02*
X20150000Y-20900000D01*
X19950000Y-23550000D02*
X19950000Y-23950000D01*
X19750000Y-23750000D02*
X20150000Y-23750000D01*
X19950000Y-26400000D02*
X19950000Y-26800000D01*
X19750000Y-26600000D02*
X20150000Y-26600000D01*
X19950000Y-29250000D02*
X19950000Y-29650000D01*
X19750000Y-29450000D02*
X20150000Y-29450000D01*
X19950000Y-31150000D02*
X19950000Y-31550000D01*
X19750000Y-31350000D02*
X20150000Y-31350000D01*
D11*
X7852619Y-33565476D02*
X7852619Y-33365476D01*
X7900238Y-33365476D01*
X7928809Y-33375000D01*
X7947857Y-33394048D01*
X7957381Y-33413095D01*
X7966905Y-33451190D01*
X7966905Y-33479762D01*
X7957381Y-33517857D01*
X7947857Y-33536905D01*
X7928809Y-33555952D01*
X7900238Y-33565476D01*
X7852619Y-33565476D01*
X8052619Y-33565476D02*
X8052619Y-33432143D01*
X8052619Y-33470238D02*
X8062143Y-33451190D01*
X8071667Y-33441667D01*
X8090714Y-33432143D01*
X8109762Y-33432143D01*
X8176428Y-33565476D02*
X8176428Y-33432143D01*
X8176428Y-33365476D02*
X8166905Y-33375000D01*
X8176428Y-33384524D01*
X8185952Y-33375000D01*
X8176428Y-33365476D01*
X8176428Y-33384524D01*
X8300238Y-33565476D02*
X8281190Y-33555952D01*
X8271667Y-33536905D01*
X8271667Y-33365476D01*
X8405000Y-33565476D02*
X8385952Y-33555952D01*
X8376428Y-33536905D01*
X8376428Y-33365476D01*
X8633571Y-33565476D02*
X8633571Y-33365476D01*
X8700238Y-33508333D01*
X8766905Y-33365476D01*
X8766905Y-33565476D01*
X8947857Y-33565476D02*
X8947857Y-33460714D01*
X8938333Y-33441667D01*
X8919286Y-33432143D01*
X8881190Y-33432143D01*
X8862143Y-33441667D01*
X8947857Y-33555952D02*
X8928810Y-33565476D01*
X8881190Y-33565476D01*
X8862143Y-33555952D01*
X8852619Y-33536905D01*
X8852619Y-33517857D01*
X8862143Y-33498809D01*
X8881190Y-33489286D01*
X8928810Y-33489286D01*
X8947857Y-33479762D01*
X9043095Y-33432143D02*
X9043095Y-33632143D01*
X9043095Y-33441667D02*
X9062143Y-33432143D01*
X9100238Y-33432143D01*
X9119286Y-33441667D01*
X9128810Y-33451190D01*
X9138333Y-33470238D01*
X9138333Y-33527381D01*
X9128810Y-33546428D01*
X9119286Y-33555952D01*
X9100238Y-33565476D01*
X9062143Y-33565476D01*
X9043095Y-33555952D01*
X9224048Y-33546428D02*
X9233571Y-33555952D01*
X9224048Y-33565476D01*
X9214524Y-33555952D01*
X9224048Y-33546428D01*
X9224048Y-33565476D01*
X9224048Y-33441667D02*
X9233571Y-33451190D01*
X9224048Y-33460714D01*
X9214524Y-33451190D01*
X9224048Y-33441667D01*
X9224048Y-33460714D01*
D12*
X7425000Y-33810000D02*
X7595000Y-33980000D01*
X7595000Y-33810000D02*
X7425000Y-33980000D01*
D11*
X7957381Y-33985476D02*
X7843095Y-33985476D01*
X7900238Y-33985476D02*
X7900238Y-33785476D01*
X7881190Y-33814048D01*
X7862143Y-33833095D01*
X7843095Y-33842619D01*
X8043095Y-33966429D02*
X8052619Y-33975952D01*
X8043095Y-33985476D01*
X8033571Y-33975952D01*
X8043095Y-33966429D01*
X8043095Y-33985476D01*
X8119286Y-33785476D02*
X8252619Y-33785476D01*
X8166905Y-33985476D01*
X8366905Y-33785476D02*
X8385952Y-33785476D01*
X8405000Y-33795000D01*
X8414524Y-33804524D01*
X8424048Y-33823571D01*
X8433571Y-33861667D01*
X8433571Y-33909286D01*
X8424048Y-33947381D01*
X8414524Y-33966429D01*
X8405000Y-33975952D01*
X8385952Y-33985476D01*
X8366905Y-33985476D01*
X8347857Y-33975952D01*
X8338333Y-33966429D01*
X8328809Y-33947381D01*
X8319286Y-33909286D01*
X8319286Y-33861667D01*
X8328809Y-33823571D01*
X8338333Y-33804524D01*
X8347857Y-33795000D01*
X8366905Y-33785476D01*
X8557381Y-33785476D02*
X8576429Y-33785476D01*
X8595476Y-33795000D01*
X8605000Y-33804524D01*
X8614524Y-33823571D01*
X8624048Y-33861667D01*
X8624048Y-33909286D01*
X8614524Y-33947381D01*
X8605000Y-33966429D01*
X8595476Y-33975952D01*
X8576429Y-33985476D01*
X8557381Y-33985476D01*
X8538333Y-33975952D01*
X8528810Y-33966429D01*
X8519286Y-33947381D01*
X8509762Y-33909286D01*
X8509762Y-33861667D01*
X8519286Y-33823571D01*
X8528810Y-33804524D01*
X8538333Y-33795000D01*
X8557381Y-33785476D01*
X8709762Y-33985476D02*
X8709762Y-33852143D01*
X8709762Y-33871190D02*
X8719286Y-33861667D01*
X8738333Y-33852143D01*
X8766905Y-33852143D01*
X8785952Y-33861667D01*
X8795476Y-33880714D01*
X8795476Y-33985476D01*
X8795476Y-33880714D02*
X8805000Y-33861667D01*
X8824048Y-33852143D01*
X8852619Y-33852143D01*
X8871667Y-33861667D01*
X8881190Y-33880714D01*
X8881190Y-33985476D01*
X8976429Y-33985476D02*
X8976429Y-33852143D01*
X8976429Y-33871190D02*
X8985952Y-33861667D01*
X9005000Y-33852143D01*
X9033571Y-33852143D01*
X9052619Y-33861667D01*
X9062143Y-33880714D01*
X9062143Y-33985476D01*
X9062143Y-33880714D02*
X9071667Y-33861667D01*
X9090714Y-33852143D01*
X9119286Y-33852143D01*
X9138333Y-33861667D01*
X9147857Y-33880714D01*
X9147857Y-33985476D01*
X9538333Y-33775952D02*
X9366905Y-34033095D01*
X9795476Y-33785476D02*
X9814524Y-33785476D01*
X9833571Y-33795000D01*
X9843095Y-33804524D01*
X9852619Y-33823571D01*
X9862143Y-33861667D01*
X9862143Y-33909286D01*
X9852619Y-33947381D01*
X9843095Y-33966429D01*
X9833571Y-33975952D01*
X9814524Y-33985476D01*
X9795476Y-33985476D01*
X9776429Y-33975952D01*
X9766905Y-33966429D01*
X9757381Y-33947381D01*
X9747857Y-33909286D01*
X9747857Y-33861667D01*
X9757381Y-33823571D01*
X9766905Y-33804524D01*
X9776429Y-33795000D01*
X9795476Y-33785476D01*
X9947857Y-33966429D02*
X9957381Y-33975952D01*
X9947857Y-33985476D01*
X9938333Y-33975952D01*
X9947857Y-33966429D01*
X9947857Y-33985476D01*
X10081190Y-33785476D02*
X10100238Y-33785476D01*
X10119286Y-33795000D01*
X10128810Y-33804524D01*
X10138333Y-33823571D01*
X10147857Y-33861667D01*
X10147857Y-33909286D01*
X10138333Y-33947381D01*
X10128810Y-33966429D01*
X10119286Y-33975952D01*
X10100238Y-33985476D01*
X10081190Y-33985476D01*
X10062143Y-33975952D01*
X10052619Y-33966429D01*
X10043095Y-33947381D01*
X10033571Y-33909286D01*
X10033571Y-33861667D01*
X10043095Y-33823571D01*
X10052619Y-33804524D01*
X10062143Y-33795000D01*
X10081190Y-33785476D01*
X10319286Y-33785476D02*
X10281190Y-33785476D01*
X10262143Y-33795000D01*
X10252619Y-33804524D01*
X10233571Y-33833095D01*
X10224048Y-33871190D01*
X10224048Y-33947381D01*
X10233571Y-33966429D01*
X10243095Y-33975952D01*
X10262143Y-33985476D01*
X10300238Y-33985476D01*
X10319286Y-33975952D01*
X10328810Y-33966429D01*
X10338333Y-33947381D01*
X10338333Y-33899762D01*
X10328810Y-33880714D01*
X10319286Y-33871190D01*
X10300238Y-33861667D01*
X10262143Y-33861667D01*
X10243095Y-33871190D01*
X10233571Y-33880714D01*
X10224048Y-33899762D01*
X10509762Y-33785476D02*
X10471667Y-33785476D01*
X10452619Y-33795000D01*
X10443095Y-33804524D01*
X10424048Y-33833095D01*
X10414524Y-33871190D01*
X10414524Y-33947381D01*
X10424048Y-33966429D01*
X10433571Y-33975952D01*
X10452619Y-33985476D01*
X10490714Y-33985476D01*
X10509762Y-33975952D01*
X10519286Y-33966429D01*
X10528810Y-33947381D01*
X10528810Y-33899762D01*
X10519286Y-33880714D01*
X10509762Y-33871190D01*
X10490714Y-33861667D01*
X10452619Y-33861667D01*
X10433571Y-33871190D01*
X10424048Y-33880714D01*
X10414524Y-33899762D01*
X10624048Y-33985476D02*
X10662143Y-33985476D01*
X10681190Y-33975952D01*
X10690714Y-33966429D01*
X10709762Y-33937857D01*
X10719286Y-33899762D01*
X10719286Y-33823571D01*
X10709762Y-33804524D01*
X10700238Y-33795000D01*
X10681190Y-33785476D01*
X10643095Y-33785476D01*
X10624048Y-33795000D01*
X10614524Y-33804524D01*
X10605000Y-33823571D01*
X10605000Y-33871190D01*
X10614524Y-33890238D01*
X10624048Y-33899762D01*
X10643095Y-33909286D01*
X10681190Y-33909286D01*
X10700238Y-33899762D01*
X10709762Y-33890238D01*
X10719286Y-33871190D01*
X10795476Y-33785476D02*
X10795476Y-33823571D01*
X10871667Y-33785476D02*
X10871667Y-33823571D01*
X11166905Y-34061667D02*
X11157381Y-34052143D01*
X11138333Y-34023571D01*
X11128810Y-34004524D01*
X11119286Y-33975952D01*
X11109762Y-33928333D01*
X11109762Y-33890238D01*
X11119286Y-33842619D01*
X11128810Y-33814048D01*
X11138333Y-33795000D01*
X11157381Y-33766429D01*
X11166905Y-33756905D01*
X11338333Y-33785476D02*
X11243095Y-33785476D01*
X11233571Y-33880714D01*
X11243095Y-33871190D01*
X11262143Y-33861667D01*
X11309762Y-33861667D01*
X11328809Y-33871190D01*
X11338333Y-33880714D01*
X11347857Y-33899762D01*
X11347857Y-33947381D01*
X11338333Y-33966429D01*
X11328809Y-33975952D01*
X11309762Y-33985476D01*
X11262143Y-33985476D01*
X11243095Y-33975952D01*
X11233571Y-33966429D01*
X11424048Y-33804524D02*
X11433571Y-33795000D01*
X11452619Y-33785476D01*
X11500238Y-33785476D01*
X11519286Y-33795000D01*
X11528809Y-33804524D01*
X11538333Y-33823571D01*
X11538333Y-33842619D01*
X11528809Y-33871190D01*
X11414524Y-33985476D01*
X11538333Y-33985476D01*
X11776428Y-33985476D02*
X11776428Y-33785476D01*
X11862143Y-33985476D02*
X11862143Y-33880714D01*
X11852619Y-33861667D01*
X11833571Y-33852143D01*
X11805000Y-33852143D01*
X11785952Y-33861667D01*
X11776428Y-33871190D01*
X11985952Y-33985476D02*
X11966905Y-33975952D01*
X11957381Y-33966429D01*
X11947857Y-33947381D01*
X11947857Y-33890238D01*
X11957381Y-33871190D01*
X11966905Y-33861667D01*
X11985952Y-33852143D01*
X12014524Y-33852143D01*
X12033571Y-33861667D01*
X12043095Y-33871190D01*
X12052619Y-33890238D01*
X12052619Y-33947381D01*
X12043095Y-33966429D01*
X12033571Y-33975952D01*
X12014524Y-33985476D01*
X11985952Y-33985476D01*
X12166905Y-33985476D02*
X12147857Y-33975952D01*
X12138333Y-33956905D01*
X12138333Y-33785476D01*
X12319286Y-33975952D02*
X12300238Y-33985476D01*
X12262143Y-33985476D01*
X12243095Y-33975952D01*
X12233571Y-33956905D01*
X12233571Y-33880714D01*
X12243095Y-33861667D01*
X12262143Y-33852143D01*
X12300238Y-33852143D01*
X12319286Y-33861667D01*
X12328809Y-33880714D01*
X12328809Y-33899762D01*
X12233571Y-33918810D01*
X12405000Y-33975952D02*
X12424048Y-33985476D01*
X12462143Y-33985476D01*
X12481190Y-33975952D01*
X12490714Y-33956905D01*
X12490714Y-33947381D01*
X12481190Y-33928333D01*
X12462143Y-33918810D01*
X12433571Y-33918810D01*
X12414524Y-33909286D01*
X12405000Y-33890238D01*
X12405000Y-33880714D01*
X12414524Y-33861667D01*
X12433571Y-33852143D01*
X12462143Y-33852143D01*
X12481190Y-33861667D01*
X12557381Y-34061667D02*
X12566905Y-34052143D01*
X12585952Y-34023571D01*
X12595476Y-34004524D01*
X12605000Y-33975952D01*
X12614524Y-33928333D01*
X12614524Y-33890238D01*
X12605000Y-33842619D01*
X12595476Y-33814048D01*
X12585952Y-33795000D01*
X12566905Y-33766429D01*
X12557381Y-33756905D01*
X12919286Y-34061667D02*
X12909762Y-34052143D01*
X12890714Y-34023571D01*
X12881190Y-34004524D01*
X12871667Y-33975952D01*
X12862143Y-33928333D01*
X12862143Y-33890238D01*
X12871667Y-33842619D01*
X12881190Y-33814048D01*
X12890714Y-33795000D01*
X12909762Y-33766429D01*
X12919286Y-33756905D01*
X12995476Y-33852143D02*
X12995476Y-33985476D01*
X12995476Y-33871190D02*
X13005000Y-33861667D01*
X13024048Y-33852143D01*
X13052619Y-33852143D01*
X13071667Y-33861667D01*
X13081190Y-33880714D01*
X13081190Y-33985476D01*
X13205000Y-33985476D02*
X13185952Y-33975952D01*
X13176428Y-33966429D01*
X13166905Y-33947381D01*
X13166905Y-33890238D01*
X13176428Y-33871190D01*
X13185952Y-33861667D01*
X13205000Y-33852143D01*
X13233571Y-33852143D01*
X13252619Y-33861667D01*
X13262143Y-33871190D01*
X13271667Y-33890238D01*
X13271667Y-33947381D01*
X13262143Y-33966429D01*
X13252619Y-33975952D01*
X13233571Y-33985476D01*
X13205000Y-33985476D01*
X13328809Y-33852143D02*
X13405000Y-33852143D01*
X13357381Y-33785476D02*
X13357381Y-33956905D01*
X13366905Y-33975952D01*
X13385952Y-33985476D01*
X13405000Y-33985476D01*
X13624048Y-33852143D02*
X13624048Y-34052143D01*
X13624048Y-33861667D02*
X13643095Y-33852143D01*
X13681190Y-33852143D01*
X13700238Y-33861667D01*
X13709762Y-33871190D01*
X13719286Y-33890238D01*
X13719286Y-33947381D01*
X13709762Y-33966429D01*
X13700238Y-33975952D01*
X13681190Y-33985476D01*
X13643095Y-33985476D01*
X13624048Y-33975952D01*
X13833571Y-33985476D02*
X13814524Y-33975952D01*
X13805000Y-33956905D01*
X13805000Y-33785476D01*
X13995476Y-33985476D02*
X13995476Y-33880714D01*
X13985952Y-33861667D01*
X13966905Y-33852143D01*
X13928809Y-33852143D01*
X13909762Y-33861667D01*
X13995476Y-33975952D02*
X13976428Y-33985476D01*
X13928809Y-33985476D01*
X13909762Y-33975952D01*
X13900238Y-33956905D01*
X13900238Y-33937857D01*
X13909762Y-33918810D01*
X13928809Y-33909286D01*
X13976428Y-33909286D01*
X13995476Y-33899762D01*
X14062143Y-33852143D02*
X14138333Y-33852143D01*
X14090714Y-33785476D02*
X14090714Y-33956905D01*
X14100238Y-33975952D01*
X14119286Y-33985476D01*
X14138333Y-33985476D01*
X14281190Y-33975952D02*
X14262143Y-33985476D01*
X14224048Y-33985476D01*
X14205000Y-33975952D01*
X14195476Y-33956905D01*
X14195476Y-33880714D01*
X14205000Y-33861667D01*
X14224048Y-33852143D01*
X14262143Y-33852143D01*
X14281190Y-33861667D01*
X14290714Y-33880714D01*
X14290714Y-33899762D01*
X14195476Y-33918810D01*
X14462143Y-33985476D02*
X14462143Y-33785476D01*
X14462143Y-33975952D02*
X14443095Y-33985476D01*
X14405000Y-33985476D01*
X14385952Y-33975952D01*
X14376428Y-33966429D01*
X14366905Y-33947381D01*
X14366905Y-33890238D01*
X14376428Y-33871190D01*
X14385952Y-33861667D01*
X14405000Y-33852143D01*
X14443095Y-33852143D01*
X14462143Y-33861667D01*
X14538333Y-34061667D02*
X14547857Y-34052143D01*
X14566905Y-34023571D01*
X14576428Y-34004524D01*
X14585952Y-33975952D01*
X14595476Y-33928333D01*
X14595476Y-33890238D01*
X14585952Y-33842619D01*
X14576428Y-33814048D01*
X14566905Y-33795000D01*
X14547857Y-33766429D01*
X14538333Y-33756905D01*
X7595000Y-34185000D02*
G75*
G03*
X7595000Y-34185000I-100000J0D01*
G01*
X7833571Y-34075476D02*
X7957381Y-34075476D01*
X7890714Y-34151667D01*
X7919286Y-34151667D01*
X7938333Y-34161190D01*
X7947857Y-34170714D01*
X7957381Y-34189762D01*
X7957381Y-34237381D01*
X7947857Y-34256429D01*
X7938333Y-34265952D01*
X7919286Y-34275476D01*
X7862143Y-34275476D01*
X7843095Y-34265952D01*
X7833571Y-34256429D01*
X8043095Y-34256429D02*
X8052619Y-34265952D01*
X8043095Y-34275476D01*
X8033571Y-34265952D01*
X8043095Y-34256429D01*
X8043095Y-34275476D01*
X8128809Y-34094524D02*
X8138333Y-34085000D01*
X8157381Y-34075476D01*
X8205000Y-34075476D01*
X8224048Y-34085000D01*
X8233571Y-34094524D01*
X8243095Y-34113571D01*
X8243095Y-34132619D01*
X8233571Y-34161190D01*
X8119286Y-34275476D01*
X8243095Y-34275476D01*
X8366905Y-34075476D02*
X8385952Y-34075476D01*
X8405000Y-34085000D01*
X8414524Y-34094524D01*
X8424048Y-34113571D01*
X8433571Y-34151667D01*
X8433571Y-34199286D01*
X8424048Y-34237381D01*
X8414524Y-34256429D01*
X8405000Y-34265952D01*
X8385952Y-34275476D01*
X8366905Y-34275476D01*
X8347857Y-34265952D01*
X8338333Y-34256429D01*
X8328809Y-34237381D01*
X8319286Y-34199286D01*
X8319286Y-34151667D01*
X8328809Y-34113571D01*
X8338333Y-34094524D01*
X8347857Y-34085000D01*
X8366905Y-34075476D01*
X8557381Y-34075476D02*
X8576429Y-34075476D01*
X8595476Y-34085000D01*
X8605000Y-34094524D01*
X8614524Y-34113571D01*
X8624048Y-34151667D01*
X8624048Y-34199286D01*
X8614524Y-34237381D01*
X8605000Y-34256429D01*
X8595476Y-34265952D01*
X8576429Y-34275476D01*
X8557381Y-34275476D01*
X8538333Y-34265952D01*
X8528810Y-34256429D01*
X8519286Y-34237381D01*
X8509762Y-34199286D01*
X8509762Y-34151667D01*
X8519286Y-34113571D01*
X8528810Y-34094524D01*
X8538333Y-34085000D01*
X8557381Y-34075476D01*
X8709762Y-34275476D02*
X8709762Y-34142143D01*
X8709762Y-34161190D02*
X8719286Y-34151667D01*
X8738333Y-34142143D01*
X8766905Y-34142143D01*
X8785952Y-34151667D01*
X8795476Y-34170714D01*
X8795476Y-34275476D01*
X8795476Y-34170714D02*
X8805000Y-34151667D01*
X8824048Y-34142143D01*
X8852619Y-34142143D01*
X8871667Y-34151667D01*
X8881190Y-34170714D01*
X8881190Y-34275476D01*
X8976429Y-34275476D02*
X8976429Y-34142143D01*
X8976429Y-34161190D02*
X8985952Y-34151667D01*
X9005000Y-34142143D01*
X9033571Y-34142143D01*
X9052619Y-34151667D01*
X9062143Y-34170714D01*
X9062143Y-34275476D01*
X9062143Y-34170714D02*
X9071667Y-34151667D01*
X9090714Y-34142143D01*
X9119286Y-34142143D01*
X9138333Y-34151667D01*
X9147857Y-34170714D01*
X9147857Y-34275476D01*
X9538333Y-34065952D02*
X9366905Y-34323095D01*
X9795476Y-34075476D02*
X9814524Y-34075476D01*
X9833571Y-34085000D01*
X9843095Y-34094524D01*
X9852619Y-34113571D01*
X9862143Y-34151667D01*
X9862143Y-34199286D01*
X9852619Y-34237381D01*
X9843095Y-34256429D01*
X9833571Y-34265952D01*
X9814524Y-34275476D01*
X9795476Y-34275476D01*
X9776429Y-34265952D01*
X9766905Y-34256429D01*
X9757381Y-34237381D01*
X9747857Y-34199286D01*
X9747857Y-34151667D01*
X9757381Y-34113571D01*
X9766905Y-34094524D01*
X9776429Y-34085000D01*
X9795476Y-34075476D01*
X9947857Y-34256429D02*
X9957381Y-34265952D01*
X9947857Y-34275476D01*
X9938333Y-34265952D01*
X9947857Y-34256429D01*
X9947857Y-34275476D01*
X10147857Y-34275476D02*
X10033571Y-34275476D01*
X10090714Y-34275476D02*
X10090714Y-34075476D01*
X10071667Y-34104048D01*
X10052619Y-34123095D01*
X10033571Y-34132619D01*
X10224048Y-34094524D02*
X10233571Y-34085000D01*
X10252619Y-34075476D01*
X10300238Y-34075476D01*
X10319286Y-34085000D01*
X10328810Y-34094524D01*
X10338333Y-34113571D01*
X10338333Y-34132619D01*
X10328810Y-34161190D01*
X10214524Y-34275476D01*
X10338333Y-34275476D01*
X10509762Y-34075476D02*
X10471667Y-34075476D01*
X10452619Y-34085000D01*
X10443095Y-34094524D01*
X10424048Y-34123095D01*
X10414524Y-34161190D01*
X10414524Y-34237381D01*
X10424048Y-34256429D01*
X10433571Y-34265952D01*
X10452619Y-34275476D01*
X10490714Y-34275476D01*
X10509762Y-34265952D01*
X10519286Y-34256429D01*
X10528810Y-34237381D01*
X10528810Y-34189762D01*
X10519286Y-34170714D01*
X10509762Y-34161190D01*
X10490714Y-34151667D01*
X10452619Y-34151667D01*
X10433571Y-34161190D01*
X10424048Y-34170714D01*
X10414524Y-34189762D01*
X10652619Y-34075476D02*
X10671667Y-34075476D01*
X10690714Y-34085000D01*
X10700238Y-34094524D01*
X10709762Y-34113571D01*
X10719286Y-34151667D01*
X10719286Y-34199286D01*
X10709762Y-34237381D01*
X10700238Y-34256429D01*
X10690714Y-34265952D01*
X10671667Y-34275476D01*
X10652619Y-34275476D01*
X10633571Y-34265952D01*
X10624048Y-34256429D01*
X10614524Y-34237381D01*
X10605000Y-34199286D01*
X10605000Y-34151667D01*
X10614524Y-34113571D01*
X10624048Y-34094524D01*
X10633571Y-34085000D01*
X10652619Y-34075476D01*
X10795476Y-34075476D02*
X10795476Y-34113571D01*
X10871667Y-34075476D02*
X10871667Y-34113571D01*
X11166905Y-34351667D02*
X11157381Y-34342143D01*
X11138333Y-34313571D01*
X11128810Y-34294524D01*
X11119286Y-34265952D01*
X11109762Y-34218333D01*
X11109762Y-34180238D01*
X11119286Y-34132619D01*
X11128810Y-34104048D01*
X11138333Y-34085000D01*
X11157381Y-34056429D01*
X11166905Y-34046905D01*
X11328809Y-34142143D02*
X11328809Y-34275476D01*
X11281190Y-34065952D02*
X11233571Y-34208810D01*
X11357381Y-34208810D01*
X11585952Y-34275476D02*
X11585952Y-34075476D01*
X11671667Y-34275476D02*
X11671667Y-34170714D01*
X11662143Y-34151667D01*
X11643095Y-34142143D01*
X11614524Y-34142143D01*
X11595476Y-34151667D01*
X11585952Y-34161190D01*
X11795476Y-34275476D02*
X11776428Y-34265952D01*
X11766905Y-34256429D01*
X11757381Y-34237381D01*
X11757381Y-34180238D01*
X11766905Y-34161190D01*
X11776428Y-34151667D01*
X11795476Y-34142143D01*
X11824048Y-34142143D01*
X11843095Y-34151667D01*
X11852619Y-34161190D01*
X11862143Y-34180238D01*
X11862143Y-34237381D01*
X11852619Y-34256429D01*
X11843095Y-34265952D01*
X11824048Y-34275476D01*
X11795476Y-34275476D01*
X11976428Y-34275476D02*
X11957381Y-34265952D01*
X11947857Y-34246905D01*
X11947857Y-34075476D01*
X12128809Y-34265952D02*
X12109762Y-34275476D01*
X12071667Y-34275476D01*
X12052619Y-34265952D01*
X12043095Y-34246905D01*
X12043095Y-34170714D01*
X12052619Y-34151667D01*
X12071667Y-34142143D01*
X12109762Y-34142143D01*
X12128809Y-34151667D01*
X12138333Y-34170714D01*
X12138333Y-34189762D01*
X12043095Y-34208810D01*
X12214524Y-34265952D02*
X12233571Y-34275476D01*
X12271667Y-34275476D01*
X12290714Y-34265952D01*
X12300238Y-34246905D01*
X12300238Y-34237381D01*
X12290714Y-34218333D01*
X12271667Y-34208810D01*
X12243095Y-34208810D01*
X12224048Y-34199286D01*
X12214524Y-34180238D01*
X12214524Y-34170714D01*
X12224048Y-34151667D01*
X12243095Y-34142143D01*
X12271667Y-34142143D01*
X12290714Y-34151667D01*
X12366905Y-34351667D02*
X12376428Y-34342143D01*
X12395476Y-34313571D01*
X12405000Y-34294524D01*
X12414524Y-34265952D01*
X12424048Y-34218333D01*
X12424048Y-34180238D01*
X12414524Y-34132619D01*
X12405000Y-34104048D01*
X12395476Y-34085000D01*
X12376428Y-34056429D01*
X12366905Y-34046905D01*
X12728809Y-34351667D02*
X12719286Y-34342143D01*
X12700238Y-34313571D01*
X12690714Y-34294524D01*
X12681190Y-34265952D01*
X12671667Y-34218333D01*
X12671667Y-34180238D01*
X12681190Y-34132619D01*
X12690714Y-34104048D01*
X12700238Y-34085000D01*
X12719286Y-34056429D01*
X12728809Y-34046905D01*
X12805000Y-34142143D02*
X12805000Y-34275476D01*
X12805000Y-34161190D02*
X12814524Y-34151667D01*
X12833571Y-34142143D01*
X12862143Y-34142143D01*
X12881190Y-34151667D01*
X12890714Y-34170714D01*
X12890714Y-34275476D01*
X13014524Y-34275476D02*
X12995476Y-34265952D01*
X12985952Y-34256429D01*
X12976428Y-34237381D01*
X12976428Y-34180238D01*
X12985952Y-34161190D01*
X12995476Y-34151667D01*
X13014524Y-34142143D01*
X13043095Y-34142143D01*
X13062143Y-34151667D01*
X13071667Y-34161190D01*
X13081190Y-34180238D01*
X13081190Y-34237381D01*
X13071667Y-34256429D01*
X13062143Y-34265952D01*
X13043095Y-34275476D01*
X13014524Y-34275476D01*
X13138333Y-34142143D02*
X13214524Y-34142143D01*
X13166905Y-34075476D02*
X13166905Y-34246905D01*
X13176428Y-34265952D01*
X13195476Y-34275476D01*
X13214524Y-34275476D01*
X13433571Y-34142143D02*
X13433571Y-34342143D01*
X13433571Y-34151667D02*
X13452619Y-34142143D01*
X13490714Y-34142143D01*
X13509762Y-34151667D01*
X13519286Y-34161190D01*
X13528809Y-34180238D01*
X13528809Y-34237381D01*
X13519286Y-34256429D01*
X13509762Y-34265952D01*
X13490714Y-34275476D01*
X13452619Y-34275476D01*
X13433571Y-34265952D01*
X13643095Y-34275476D02*
X13624048Y-34265952D01*
X13614524Y-34246905D01*
X13614524Y-34075476D01*
X13805000Y-34275476D02*
X13805000Y-34170714D01*
X13795476Y-34151667D01*
X13776428Y-34142143D01*
X13738333Y-34142143D01*
X13719286Y-34151667D01*
X13805000Y-34265952D02*
X13785952Y-34275476D01*
X13738333Y-34275476D01*
X13719286Y-34265952D01*
X13709762Y-34246905D01*
X13709762Y-34227857D01*
X13719286Y-34208810D01*
X13738333Y-34199286D01*
X13785952Y-34199286D01*
X13805000Y-34189762D01*
X13871667Y-34142143D02*
X13947857Y-34142143D01*
X13900238Y-34075476D02*
X13900238Y-34246905D01*
X13909762Y-34265952D01*
X13928809Y-34275476D01*
X13947857Y-34275476D01*
X14090714Y-34265952D02*
X14071667Y-34275476D01*
X14033571Y-34275476D01*
X14014524Y-34265952D01*
X14005000Y-34246905D01*
X14005000Y-34170714D01*
X14014524Y-34151667D01*
X14033571Y-34142143D01*
X14071667Y-34142143D01*
X14090714Y-34151667D01*
X14100238Y-34170714D01*
X14100238Y-34189762D01*
X14005000Y-34208810D01*
X14271667Y-34275476D02*
X14271667Y-34075476D01*
X14271667Y-34265952D02*
X14252619Y-34275476D01*
X14214524Y-34275476D01*
X14195476Y-34265952D01*
X14185952Y-34256429D01*
X14176428Y-34237381D01*
X14176428Y-34180238D01*
X14185952Y-34161190D01*
X14195476Y-34151667D01*
X14214524Y-34142143D01*
X14252619Y-34142143D01*
X14271667Y-34151667D01*
X14347857Y-34351667D02*
X14357381Y-34342143D01*
X14376428Y-34313571D01*
X14385952Y-34294524D01*
X14395476Y-34265952D01*
X14405000Y-34218333D01*
X14405000Y-34180238D01*
X14395476Y-34132619D01*
X14385952Y-34104048D01*
X14376428Y-34085000D01*
X14357381Y-34056429D01*
X14347857Y-34046905D01*
X7495000Y-34405000D02*
X7495000Y-34605000D01*
X7395000Y-34505000D02*
X7595000Y-34505000D01*
X7938333Y-34462143D02*
X7938333Y-34595476D01*
X7890714Y-34385952D02*
X7843095Y-34528810D01*
X7966905Y-34528810D01*
X8043095Y-34576429D02*
X8052619Y-34585952D01*
X8043095Y-34595476D01*
X8033571Y-34585952D01*
X8043095Y-34576429D01*
X8043095Y-34595476D01*
X8176428Y-34395476D02*
X8195476Y-34395476D01*
X8214524Y-34405000D01*
X8224048Y-34414524D01*
X8233571Y-34433571D01*
X8243095Y-34471667D01*
X8243095Y-34519286D01*
X8233571Y-34557381D01*
X8224048Y-34576429D01*
X8214524Y-34585952D01*
X8195476Y-34595476D01*
X8176428Y-34595476D01*
X8157381Y-34585952D01*
X8147857Y-34576429D01*
X8138333Y-34557381D01*
X8128809Y-34519286D01*
X8128809Y-34471667D01*
X8138333Y-34433571D01*
X8147857Y-34414524D01*
X8157381Y-34405000D01*
X8176428Y-34395476D01*
X8366905Y-34395476D02*
X8385952Y-34395476D01*
X8405000Y-34405000D01*
X8414524Y-34414524D01*
X8424048Y-34433571D01*
X8433571Y-34471667D01*
X8433571Y-34519286D01*
X8424048Y-34557381D01*
X8414524Y-34576429D01*
X8405000Y-34585952D01*
X8385952Y-34595476D01*
X8366905Y-34595476D01*
X8347857Y-34585952D01*
X8338333Y-34576429D01*
X8328809Y-34557381D01*
X8319286Y-34519286D01*
X8319286Y-34471667D01*
X8328809Y-34433571D01*
X8338333Y-34414524D01*
X8347857Y-34405000D01*
X8366905Y-34395476D01*
X8557381Y-34395476D02*
X8576429Y-34395476D01*
X8595476Y-34405000D01*
X8605000Y-34414524D01*
X8614524Y-34433571D01*
X8624048Y-34471667D01*
X8624048Y-34519286D01*
X8614524Y-34557381D01*
X8605000Y-34576429D01*
X8595476Y-34585952D01*
X8576429Y-34595476D01*
X8557381Y-34595476D01*
X8538333Y-34585952D01*
X8528810Y-34576429D01*
X8519286Y-34557381D01*
X8509762Y-34519286D01*
X8509762Y-34471667D01*
X8519286Y-34433571D01*
X8528810Y-34414524D01*
X8538333Y-34405000D01*
X8557381Y-34395476D01*
X8709762Y-34595476D02*
X8709762Y-34462143D01*
X8709762Y-34481190D02*
X8719286Y-34471667D01*
X8738333Y-34462143D01*
X8766905Y-34462143D01*
X8785952Y-34471667D01*
X8795476Y-34490714D01*
X8795476Y-34595476D01*
X8795476Y-34490714D02*
X8805000Y-34471667D01*
X8824048Y-34462143D01*
X8852619Y-34462143D01*
X8871667Y-34471667D01*
X8881190Y-34490714D01*
X8881190Y-34595476D01*
X8976429Y-34595476D02*
X8976429Y-34462143D01*
X8976429Y-34481190D02*
X8985952Y-34471667D01*
X9005000Y-34462143D01*
X9033571Y-34462143D01*
X9052619Y-34471667D01*
X9062143Y-34490714D01*
X9062143Y-34595476D01*
X9062143Y-34490714D02*
X9071667Y-34471667D01*
X9090714Y-34462143D01*
X9119286Y-34462143D01*
X9138333Y-34471667D01*
X9147857Y-34490714D01*
X9147857Y-34595476D01*
X9538333Y-34385952D02*
X9366905Y-34643095D01*
X9795476Y-34395476D02*
X9814524Y-34395476D01*
X9833571Y-34405000D01*
X9843095Y-34414524D01*
X9852619Y-34433571D01*
X9862143Y-34471667D01*
X9862143Y-34519286D01*
X9852619Y-34557381D01*
X9843095Y-34576429D01*
X9833571Y-34585952D01*
X9814524Y-34595476D01*
X9795476Y-34595476D01*
X9776429Y-34585952D01*
X9766905Y-34576429D01*
X9757381Y-34557381D01*
X9747857Y-34519286D01*
X9747857Y-34471667D01*
X9757381Y-34433571D01*
X9766905Y-34414524D01*
X9776429Y-34405000D01*
X9795476Y-34395476D01*
X9947857Y-34576429D02*
X9957381Y-34585952D01*
X9947857Y-34595476D01*
X9938333Y-34585952D01*
X9947857Y-34576429D01*
X9947857Y-34595476D01*
X10147857Y-34595476D02*
X10033571Y-34595476D01*
X10090714Y-34595476D02*
X10090714Y-34395476D01*
X10071667Y-34424048D01*
X10052619Y-34443095D01*
X10033571Y-34452619D01*
X10328810Y-34395476D02*
X10233571Y-34395476D01*
X10224048Y-34490714D01*
X10233571Y-34481190D01*
X10252619Y-34471667D01*
X10300238Y-34471667D01*
X10319286Y-34481190D01*
X10328810Y-34490714D01*
X10338333Y-34509762D01*
X10338333Y-34557381D01*
X10328810Y-34576429D01*
X10319286Y-34585952D01*
X10300238Y-34595476D01*
X10252619Y-34595476D01*
X10233571Y-34585952D01*
X10224048Y-34576429D01*
X10405000Y-34395476D02*
X10538333Y-34395476D01*
X10452619Y-34595476D01*
X10709762Y-34395476D02*
X10614524Y-34395476D01*
X10605000Y-34490714D01*
X10614524Y-34481190D01*
X10633571Y-34471667D01*
X10681190Y-34471667D01*
X10700238Y-34481190D01*
X10709762Y-34490714D01*
X10719286Y-34509762D01*
X10719286Y-34557381D01*
X10709762Y-34576429D01*
X10700238Y-34585952D01*
X10681190Y-34595476D01*
X10633571Y-34595476D01*
X10614524Y-34585952D01*
X10605000Y-34576429D01*
X10795476Y-34395476D02*
X10795476Y-34433571D01*
X10871667Y-34395476D02*
X10871667Y-34433571D01*
X11166905Y-34671667D02*
X11157381Y-34662143D01*
X11138333Y-34633571D01*
X11128810Y-34614524D01*
X11119286Y-34585952D01*
X11109762Y-34538333D01*
X11109762Y-34500238D01*
X11119286Y-34452619D01*
X11128810Y-34424048D01*
X11138333Y-34405000D01*
X11157381Y-34376429D01*
X11166905Y-34366905D01*
X11233571Y-34414524D02*
X11243095Y-34405000D01*
X11262143Y-34395476D01*
X11309762Y-34395476D01*
X11328809Y-34405000D01*
X11338333Y-34414524D01*
X11347857Y-34433571D01*
X11347857Y-34452619D01*
X11338333Y-34481190D01*
X11224048Y-34595476D01*
X11347857Y-34595476D01*
X11519286Y-34395476D02*
X11481190Y-34395476D01*
X11462143Y-34405000D01*
X11452619Y-34414524D01*
X11433571Y-34443095D01*
X11424048Y-34481190D01*
X11424048Y-34557381D01*
X11433571Y-34576429D01*
X11443095Y-34585952D01*
X11462143Y-34595476D01*
X11500238Y-34595476D01*
X11519286Y-34585952D01*
X11528809Y-34576429D01*
X11538333Y-34557381D01*
X11538333Y-34509762D01*
X11528809Y-34490714D01*
X11519286Y-34481190D01*
X11500238Y-34471667D01*
X11462143Y-34471667D01*
X11443095Y-34481190D01*
X11433571Y-34490714D01*
X11424048Y-34509762D01*
X11776428Y-34595476D02*
X11776428Y-34395476D01*
X11862143Y-34595476D02*
X11862143Y-34490714D01*
X11852619Y-34471667D01*
X11833571Y-34462143D01*
X11805000Y-34462143D01*
X11785952Y-34471667D01*
X11776428Y-34481190D01*
X11985952Y-34595476D02*
X11966905Y-34585952D01*
X11957381Y-34576429D01*
X11947857Y-34557381D01*
X11947857Y-34500238D01*
X11957381Y-34481190D01*
X11966905Y-34471667D01*
X11985952Y-34462143D01*
X12014524Y-34462143D01*
X12033571Y-34471667D01*
X12043095Y-34481190D01*
X12052619Y-34500238D01*
X12052619Y-34557381D01*
X12043095Y-34576429D01*
X12033571Y-34585952D01*
X12014524Y-34595476D01*
X11985952Y-34595476D01*
X12166905Y-34595476D02*
X12147857Y-34585952D01*
X12138333Y-34566905D01*
X12138333Y-34395476D01*
X12319286Y-34585952D02*
X12300238Y-34595476D01*
X12262143Y-34595476D01*
X12243095Y-34585952D01*
X12233571Y-34566905D01*
X12233571Y-34490714D01*
X12243095Y-34471667D01*
X12262143Y-34462143D01*
X12300238Y-34462143D01*
X12319286Y-34471667D01*
X12328809Y-34490714D01*
X12328809Y-34509762D01*
X12233571Y-34528810D01*
X12405000Y-34585952D02*
X12424048Y-34595476D01*
X12462143Y-34595476D01*
X12481190Y-34585952D01*
X12490714Y-34566905D01*
X12490714Y-34557381D01*
X12481190Y-34538333D01*
X12462143Y-34528810D01*
X12433571Y-34528810D01*
X12414524Y-34519286D01*
X12405000Y-34500238D01*
X12405000Y-34490714D01*
X12414524Y-34471667D01*
X12433571Y-34462143D01*
X12462143Y-34462143D01*
X12481190Y-34471667D01*
X12557381Y-34671667D02*
X12566905Y-34662143D01*
X12585952Y-34633571D01*
X12595476Y-34614524D01*
X12605000Y-34585952D01*
X12614524Y-34538333D01*
X12614524Y-34500238D01*
X12605000Y-34452619D01*
X12595476Y-34424048D01*
X12585952Y-34405000D01*
X12566905Y-34376429D01*
X12557381Y-34366905D01*
X12919286Y-34671667D02*
X12909762Y-34662143D01*
X12890714Y-34633571D01*
X12881190Y-34614524D01*
X12871667Y-34585952D01*
X12862143Y-34538333D01*
X12862143Y-34500238D01*
X12871667Y-34452619D01*
X12881190Y-34424048D01*
X12890714Y-34405000D01*
X12909762Y-34376429D01*
X12919286Y-34366905D01*
X12995476Y-34462143D02*
X12995476Y-34595476D01*
X12995476Y-34481190D02*
X13005000Y-34471667D01*
X13024048Y-34462143D01*
X13052619Y-34462143D01*
X13071667Y-34471667D01*
X13081190Y-34490714D01*
X13081190Y-34595476D01*
X13205000Y-34595476D02*
X13185952Y-34585952D01*
X13176428Y-34576429D01*
X13166905Y-34557381D01*
X13166905Y-34500238D01*
X13176428Y-34481190D01*
X13185952Y-34471667D01*
X13205000Y-34462143D01*
X13233571Y-34462143D01*
X13252619Y-34471667D01*
X13262143Y-34481190D01*
X13271667Y-34500238D01*
X13271667Y-34557381D01*
X13262143Y-34576429D01*
X13252619Y-34585952D01*
X13233571Y-34595476D01*
X13205000Y-34595476D01*
X13328809Y-34462143D02*
X13405000Y-34462143D01*
X13357381Y-34395476D02*
X13357381Y-34566905D01*
X13366905Y-34585952D01*
X13385952Y-34595476D01*
X13405000Y-34595476D01*
X13624048Y-34462143D02*
X13624048Y-34662143D01*
X13624048Y-34471667D02*
X13643095Y-34462143D01*
X13681190Y-34462143D01*
X13700238Y-34471667D01*
X13709762Y-34481190D01*
X13719286Y-34500238D01*
X13719286Y-34557381D01*
X13709762Y-34576429D01*
X13700238Y-34585952D01*
X13681190Y-34595476D01*
X13643095Y-34595476D01*
X13624048Y-34585952D01*
X13833571Y-34595476D02*
X13814524Y-34585952D01*
X13805000Y-34566905D01*
X13805000Y-34395476D01*
X13995476Y-34595476D02*
X13995476Y-34490714D01*
X13985952Y-34471667D01*
X13966905Y-34462143D01*
X13928809Y-34462143D01*
X13909762Y-34471667D01*
X13995476Y-34585952D02*
X13976428Y-34595476D01*
X13928809Y-34595476D01*
X13909762Y-34585952D01*
X13900238Y-34566905D01*
X13900238Y-34547857D01*
X13909762Y-34528810D01*
X13928809Y-34519286D01*
X13976428Y-34519286D01*
X13995476Y-34509762D01*
X14062143Y-34462143D02*
X14138333Y-34462143D01*
X14090714Y-34395476D02*
X14090714Y-34566905D01*
X14100238Y-34585952D01*
X14119286Y-34595476D01*
X14138333Y-34595476D01*
X14281190Y-34585952D02*
X14262143Y-34595476D01*
X14224048Y-34595476D01*
X14205000Y-34585952D01*
X14195476Y-34566905D01*
X14195476Y-34490714D01*
X14205000Y-34471667D01*
X14224048Y-34462143D01*
X14262143Y-34462143D01*
X14281190Y-34471667D01*
X14290714Y-34490714D01*
X14290714Y-34509762D01*
X14195476Y-34528810D01*
X14462143Y-34595476D02*
X14462143Y-34395476D01*
X14462143Y-34585952D02*
X14443095Y-34595476D01*
X14405000Y-34595476D01*
X14385952Y-34585952D01*
X14376428Y-34576429D01*
X14366905Y-34557381D01*
X14366905Y-34500238D01*
X14376428Y-34481190D01*
X14385952Y-34471667D01*
X14405000Y-34462143D01*
X14443095Y-34462143D01*
X14462143Y-34471667D01*
X14538333Y-34671667D02*
X14547857Y-34662143D01*
X14566905Y-34633571D01*
X14576428Y-34614524D01*
X14585952Y-34585952D01*
X14595476Y-34538333D01*
X14595476Y-34500238D01*
X14585952Y-34452619D01*
X14576428Y-34424048D01*
X14566905Y-34405000D01*
X14547857Y-34376429D01*
X14538333Y-34366905D01*
M02*
