M48
; DRILL file {KiCad (6.0.2)} date Tue Jan 10 12:42:19 2023
; FORMAT={-:-/ absolute / metric / decimal}
; #@! TF.CreationDate,2023-01-10T12:42:19+01:00
; #@! TF.GenerationSoftware,Kicad,Pcbnew,(6.0.2)
; #@! TF.FileFunction,Plated,1,2,PTH
FMAT,2
METRIC
; #@! TA.AperFunction,Plated,PTH,ViaDrill
T1C0.400
; #@! TA.AperFunction,Plated,PTH,ComponentDrill
T2C0.800
; #@! TA.AperFunction,Plated,PTH,ComponentDrill
T3C0.900
; #@! TA.AperFunction,Plated,PTH,ComponentDrill
T4C1.000
; #@! TA.AperFunction,Plated,PTH,ComponentDrill
T5C1.100
; #@! TA.AperFunction,Plated,PTH,ComponentDrill
T6C1.500
; #@! TA.AperFunction,Plated,PTH,ComponentDrill
T7C1.800
; #@! TA.AperFunction,Plated,PTH,ComponentDrill
T8C2.000
%
G90
G05
T1
X81.344Y-73.031
X86.094Y-111.031
X86.224Y-115.781
X91.438Y-154.969
X91.438Y-156.156
X91.438Y-159.719
X92.162Y-161.5
X95.0Y-112.812
X95.0Y-116.375
X95.0Y-161.5
X95.0Y-285.0
X104.369Y-221.469
X104.369Y-222.656
X106.875Y-320.625
X108.062Y-112.812
X108.062Y-116.375
X108.062Y-225.625
X108.656Y-84.312
X108.656Y-216.125
X110.438Y-222.062
X110.438Y-225.625
X112.219Y-222.062
X112.812Y-203.656
X113.406Y-213.75
X113.406Y-216.719
X114.0Y-161.5
X114.0Y-237.5
X114.594Y-213.75
X114.594Y-216.719
X115.781Y-213.75
X115.781Y-216.719
X116.969Y-216.719
X118.75Y-213.156
X121.125Y-112.219
X121.125Y-113.406
X121.125Y-214.213
X121.125Y-216.125
X122.906Y-247.0
X124.094Y-112.219
X124.094Y-113.406
X124.094Y-218.5
X124.094Y-225.625
X124.094Y-229.188
X126.469Y-88.338
X126.599Y-247.0
X128.844Y-90.844
X130.031Y-213.75
X130.625Y-216.125
X131.219Y-213.75
X131.812Y-216.125
X132.406Y-213.75
X133.0Y-216.125
X134.188Y-206.031
X134.188Y-216.125
X135.375Y-216.125
X135.375Y-220.875
X135.969Y-102.719
X136.562Y-222.525
X137.156Y-210.781
X137.75Y-213.156
X137.75Y-216.125
X137.75Y-220.875
X138.344Y-223.25
X138.938Y-213.156
X139.531Y-232.156
X140.125Y-216.125
X140.719Y-214.213
X141.906Y-123.5
X142.285Y-217.097
X143.094Y-216.125
X143.688Y-209.0
X144.455Y-210.361
X145.469Y-212.562
X145.469Y-216.719
X146.39Y-216.312
X148.568Y-209.0
X149.031Y-207.219
X149.031Y-210.188
X149.512Y-216.588
X150.219Y-217.312
X152.0Y-216.849
X154.375Y-103.312
X154.375Y-136.562
X154.375Y-184.656
X156.75Y-86.688
X156.75Y-186.438
X156.75Y-230.969
X157.344Y-84.775
X157.938Y-86.688
X158.531Y-84.775
X160.312Y-70.656
X160.312Y-285.0
X161.5Y-71.25
X162.688Y-71.844
X163.875Y-72.438
X164.469Y-118.75
X165.062Y-73.031
X166.25Y-73.625
X167.438Y-118.75
X168.625Y-159.719
X169.773Y-87.461
X169.812Y-225.031
X170.275Y-226.219
X170.406Y-86.688
X171.463Y-211.554
X171.463Y-223.957
X172.188Y-210.781
X172.188Y-223.25
X172.927Y-87.427
X173.969Y-86.688
X174.562Y-220.875
X176.938Y-220.875
X177.531Y-214.474
X178.719Y-214.344
X178.719Y-220.875
X179.906Y-214.344
X179.906Y-220.875
X179.906Y-226.219
X180.5Y-104.5
X180.5Y-266.0
X181.094Y-214.344
X181.094Y-220.875
X181.094Y-237.5
X182.281Y-90.25
X182.281Y-220.875
X183.469Y-213.75
X183.473Y-89.058
X184.062Y-220.875
X184.656Y-213.75
X185.25Y-220.875
X186.438Y-80.156
X187.031Y-215.4
X187.625Y-80.75
X187.625Y-216.849
X188.812Y-263.625
X189.406Y-81.344
X189.406Y-83.125
X189.406Y-228.0
X190.594Y-84.312
X190.594Y-220.875
X190.594Y-224.438
X191.188Y-263.625
X192.375Y-74.219
X193.562Y-86.094
X193.562Y-213.156
X195.938Y-257.688
X195.938Y-260.062
X197.125Y-257.688
X197.125Y-260.062
X197.719Y-215.531
X198.312Y-257.688
X198.906Y-213.156
X198.906Y-215.531
X199.5Y-104.5
X199.5Y-257.688
X200.094Y-215.531
X201.281Y-215.531
X201.875Y-84.906
X202.469Y-215.531
X203.061Y-230.374
X203.062Y-213.156
X203.656Y-215.531
X204.25Y-211.375
X204.25Y-213.156
X204.25Y-220.875
X204.844Y-225.625
X206.031Y-211.375
X206.625Y-77.188
X206.625Y-320.625
X207.219Y-93.219
X207.812Y-92.031
X207.812Y-211.375
X207.812Y-266.0
X208.406Y-75.406
T2
X95.0Y-118.75
X95.0Y-128.91
X104.5Y-247.0
X109.25Y-133.0
X109.25Y-152.0
X109.25Y-171.0
X109.25Y-175.75
X109.25Y-180.5
X109.25Y-199.5
X109.25Y-251.75
X109.25Y-256.5
X109.25Y-275.5
X109.25Y-280.25
X109.25Y-285.0
X109.25Y-304.0
X114.0Y-118.75
X114.0Y-128.91
X114.25Y-175.75
X114.25Y-251.75
X114.25Y-280.25
X114.66Y-247.0
X118.75Y-99.75
X118.75Y-109.91
X118.75Y-247.0
X119.41Y-133.0
X119.41Y-152.0
X119.41Y-171.0
X119.41Y-180.5
X119.41Y-199.5
X119.41Y-256.5
X119.41Y-275.5
X119.41Y-285.0
X119.41Y-304.0
X123.5Y-175.75
X123.5Y-251.75
X123.5Y-280.25
X128.25Y-95.0
X128.25Y-114.0
X128.25Y-133.0
X128.25Y-152.0
X128.25Y-180.5
X128.25Y-199.5
X128.25Y-256.5
X128.25Y-285.0
X128.25Y-304.0
X128.5Y-175.75
X128.5Y-251.75
X128.5Y-280.25
X128.91Y-247.0
X133.0Y-118.75
X133.0Y-123.75
X133.0Y-247.0
X137.75Y-118.75
X137.75Y-123.75
X138.41Y-95.0
X138.41Y-114.0
X138.41Y-133.0
X138.41Y-152.0
X138.41Y-180.5
X138.41Y-199.5
X138.41Y-256.5
X138.41Y-285.0
X138.41Y-304.0
X143.16Y-247.0
X147.25Y-95.0
X147.25Y-114.0
X147.25Y-118.75
X147.25Y-123.75
X152.0Y-118.75
X152.0Y-123.75
X157.41Y-95.0
X157.41Y-114.0
X161.5Y-118.75
X161.5Y-128.91
X166.25Y-99.75
X166.25Y-109.91
X171.0Y-247.0
X175.5Y-175.75
X175.75Y-133.0
X175.75Y-152.0
X175.75Y-171.0
X175.75Y-180.5
X175.75Y-199.5
X175.75Y-251.75
X175.75Y-256.5
X175.75Y-275.5
X175.75Y-280.25
X175.75Y-285.0
X175.75Y-304.0
X180.5Y-118.75
X180.5Y-128.91
X180.5Y-175.75
X180.75Y-251.75
X180.75Y-280.25
X181.16Y-247.0
X185.25Y-247.0
X185.91Y-133.0
X185.91Y-152.0
X185.91Y-171.0
X185.91Y-180.5
X185.91Y-199.5
X185.91Y-256.5
X185.91Y-275.5
X185.91Y-285.0
X185.91Y-304.0
X189.75Y-251.75
X189.75Y-280.25
X190.0Y-175.75
X194.75Y-133.0
X194.75Y-152.0
X194.75Y-180.5
X194.75Y-199.5
X194.75Y-251.75
X194.75Y-275.5
X194.75Y-280.25
X194.75Y-285.0
X194.75Y-304.0
X195.0Y-175.75
X195.41Y-247.0
X199.5Y-247.0
X204.91Y-133.0
X204.91Y-152.0
X204.91Y-180.5
X204.91Y-199.5
X204.91Y-275.5
X204.91Y-285.0
X204.91Y-304.0
X209.66Y-247.0
T3
X103.23Y-123.5
X105.77Y-123.5
X122.23Y-123.5
X124.77Y-123.5
X169.73Y-123.5
X172.27Y-123.5
X188.73Y-123.5
X191.27Y-123.5
T4
X87.5Y-102.0
X87.5Y-104.5
X87.5Y-107.0
X87.5Y-140.0
X87.5Y-142.5
X87.5Y-145.0
X87.5Y-159.0
X87.5Y-161.5
X87.5Y-164.0
X87.5Y-187.5
X87.5Y-190.0
X87.5Y-192.5
X87.5Y-206.5
X87.5Y-209.0
X87.5Y-211.5
X87.5Y-225.5
X87.5Y-228.0
X87.5Y-230.5
X106.5Y-159.0
X106.5Y-161.5
X106.5Y-164.0
X106.5Y-235.0
X106.5Y-237.5
X106.5Y-240.0
X106.5Y-263.5
X106.5Y-266.0
X106.5Y-268.5
X125.5Y-102.0
X125.5Y-104.5
X125.5Y-107.0
X140.0Y-102.0
X140.0Y-107.0
X144.5Y-102.0
X144.5Y-104.5
X144.5Y-107.0
X154.0Y-140.0
X154.0Y-142.5
X154.0Y-145.0
X154.0Y-159.0
X154.0Y-161.5
X154.0Y-164.0
X154.0Y-187.5
X154.0Y-190.0
X154.0Y-192.5
X154.0Y-206.5
X154.0Y-209.0
X154.0Y-211.5
X154.0Y-225.5
X154.0Y-228.0
X154.0Y-230.5
X159.0Y-102.0
X159.0Y-107.0
X168.74Y-77.89
X168.74Y-93.13
X171.28Y-77.89
X171.28Y-93.13
X173.0Y-102.0
X173.0Y-104.5
X173.0Y-107.0
X173.0Y-159.0
X173.0Y-161.5
X173.0Y-164.0
X173.0Y-235.0
X173.0Y-237.5
X173.0Y-240.0
X173.0Y-263.5
X173.0Y-266.0
X173.0Y-268.5
X173.82Y-77.89
X173.82Y-93.13
X176.36Y-77.89
X176.36Y-93.13
X178.9Y-77.89
X178.9Y-93.13
X181.44Y-77.89
X181.44Y-93.13
X183.98Y-77.89
X183.98Y-93.13
X186.52Y-77.89
X186.52Y-93.13
X189.06Y-77.89
X189.06Y-93.13
X191.6Y-77.89
X191.6Y-93.13
X192.0Y-102.0
X192.0Y-104.5
X192.0Y-107.0
X194.14Y-77.89
X194.14Y-93.13
X196.68Y-77.89
X196.68Y-93.13
X199.22Y-77.89
X199.22Y-93.13
X201.76Y-77.89
X201.76Y-93.13
X204.3Y-77.89
X204.3Y-93.13
T5
X90.53Y-77.88
X90.53Y-93.12
X91.25Y-320.0
X93.07Y-77.88
X93.07Y-93.12
X93.75Y-250.0
X93.75Y-320.0
X95.61Y-77.88
X95.61Y-93.12
X96.25Y-320.0
X98.15Y-77.88
X98.15Y-93.12
X98.75Y-250.0
X98.75Y-320.0
X100.69Y-77.88
X100.69Y-93.12
X103.23Y-77.88
X103.23Y-93.12
X105.77Y-77.88
X105.77Y-93.12
X108.31Y-77.88
X108.31Y-93.12
X110.85Y-77.88
X110.85Y-93.12
X113.39Y-77.88
X113.39Y-93.12
X115.93Y-77.88
X115.93Y-93.12
X118.47Y-77.88
X118.47Y-93.12
X157.75Y-320.0
X160.25Y-250.0
X160.25Y-320.0
X162.75Y-320.0
X165.25Y-250.0
X165.25Y-320.0
T6
X110.19Y-139.96
X110.19Y-187.46
X110.19Y-206.46
X110.19Y-291.96
X110.19Y-310.96
X116.54Y-137.42
X116.54Y-184.92
X116.54Y-203.92
X116.54Y-289.42
X116.54Y-308.42
X129.19Y-139.96
X129.19Y-158.96
X129.19Y-187.46
X129.19Y-206.46
X129.19Y-234.96
X129.19Y-263.46
X129.19Y-291.96
X129.19Y-310.96
X135.54Y-137.42
X135.54Y-156.42
X135.54Y-184.92
X135.54Y-203.92
X135.54Y-232.42
X135.54Y-260.92
X135.54Y-289.42
X135.54Y-308.42
X176.69Y-139.96
X176.69Y-187.46
X176.69Y-206.46
X176.69Y-291.96
X176.69Y-310.96
X183.04Y-137.42
X183.04Y-184.92
X183.04Y-203.92
X183.04Y-289.42
X183.04Y-308.42
X195.69Y-139.96
X195.69Y-158.96
X195.69Y-187.46
X195.69Y-206.46
X195.69Y-234.96
X195.69Y-263.46
X195.69Y-291.96
X195.69Y-310.96
X202.04Y-137.42
X202.04Y-156.42
X202.04Y-184.92
X202.04Y-203.92
X202.04Y-232.42
X202.04Y-260.92
X202.04Y-289.42
X202.04Y-308.42
T6
X132.35Y-98.9G85X133.65Y-98.9
G05
X132.35Y-110.1G85X133.65Y-110.1
G05
X151.35Y-98.9G85X152.65Y-98.9
G05
X151.35Y-110.1G85X152.65Y-110.1
G05
T7
X94.35Y-100.1G85X94.65Y-100.1
G05
X94.35Y-108.9G85X94.65Y-108.9
G05
X94.35Y-138.1G85X94.65Y-138.1
G05
X94.35Y-146.9G85X94.65Y-146.9
G05
X94.35Y-157.1G85X94.65Y-157.1
G05
X94.35Y-165.9G85X94.65Y-165.9
G05
X94.35Y-185.6G85X94.65Y-185.6
G05
X94.35Y-194.4G85X94.65Y-194.4
G05
X94.35Y-204.6G85X94.65Y-204.6
G05
X94.35Y-213.4G85X94.65Y-213.4
G05
X94.35Y-223.6G85X94.65Y-223.6
G05
X94.35Y-232.4G85X94.65Y-232.4
G05
X160.85Y-138.1G85X161.15Y-138.1
G05
X160.85Y-146.9G85X161.15Y-146.9
G05
X160.85Y-157.1G85X161.15Y-157.1
G05
X160.85Y-165.9G85X161.15Y-165.9
G05
X160.85Y-185.6G85X161.15Y-185.6
G05
X160.85Y-194.4G85X161.15Y-194.4
G05
X160.85Y-204.6G85X161.15Y-204.6
G05
X160.85Y-213.4G85X161.15Y-213.4
G05
X160.85Y-223.6G85X161.15Y-223.6
G05
X160.85Y-232.4G85X161.15Y-232.4
G05
X179.85Y-100.1G85X180.15Y-100.1
G05
X179.85Y-108.9G85X180.15Y-108.9
G05
X198.85Y-100.1G85X199.15Y-100.1
G05
X198.85Y-108.9G85X199.15Y-108.9
G05
T8
X113.75Y-155.9G85X114.25Y-155.9
G05
X113.75Y-167.1G85X114.25Y-167.1
G05
X113.75Y-231.9G85X114.25Y-231.9
G05
X113.75Y-243.1G85X114.25Y-243.1
G05
X113.75Y-260.4G85X114.25Y-260.4
G05
X113.75Y-271.6G85X114.25Y-271.6
G05
X180.25Y-155.9G85X180.75Y-155.9
G05
X180.25Y-167.1G85X180.75Y-167.1
G05
X180.25Y-231.9G85X180.75Y-231.9
G05
X180.25Y-243.1G85X180.75Y-243.1
G05
X180.25Y-260.4G85X180.75Y-260.4
G05
X180.25Y-271.6G85X180.75Y-271.6
G05
T0
M30
