G04 #@! TF.GenerationSoftware,KiCad,Pcbnew,(6.0.2)*
G04 #@! TF.CreationDate,2023-01-10T12:42:00+01:00*
G04 #@! TF.ProjectId,brutalist_01,62727574-616c-4697-9374-5f30312e6b69,00*
G04 #@! TF.SameCoordinates,Original*
G04 #@! TF.FileFunction,Soldermask,Top*
G04 #@! TF.FilePolarity,Negative*
%FSLAX46Y46*%
G04 Gerber Fmt 4.6, Leading zero omitted, Abs format (unit mm)*
G04 Created by KiCad (PCBNEW (6.0.2)) date 2023-01-10 12:42:00*
%MOMM*%
%LPD*%
G01*
G04 APERTURE LIST*
G04 Aperture macros list*
%AMRoundRect*
0 Rectangle with rounded corners*
0 $1 Rounding radius*
0 $2 $3 $4 $5 $6 $7 $8 $9 X,Y pos of 4 corners*
0 Add a 4 corners polygon primitive as box body*
4,1,4,$2,$3,$4,$5,$6,$7,$8,$9,$2,$3,0*
0 Add four circle primitives for the rounded corners*
1,1,$1+$1,$2,$3*
1,1,$1+$1,$4,$5*
1,1,$1+$1,$6,$7*
1,1,$1+$1,$8,$9*
0 Add four rect primitives between the rounded corners*
20,1,$1+$1,$2,$3,$4,$5,0*
20,1,$1+$1,$4,$5,$6,$7,0*
20,1,$1+$1,$6,$7,$8,$9,0*
20,1,$1+$1,$8,$9,$2,$3,0*%
G04 Aperture macros list end*
%ADD10C,3.200000*%
%ADD11C,1.600000*%
%ADD12O,1.600000X1.600000*%
%ADD13C,4.000000*%
%ADD14C,1.700000*%
%ADD15C,2.200000*%
%ADD16R,1.800000X1.800000*%
%ADD17C,1.800000*%
%ADD18C,2.000000*%
%ADD19RoundRect,0.750000X-1.250000X-0.750000X1.250000X-0.750000X1.250000X0.750000X-1.250000X0.750000X0*%
%ADD20R,2.000000X2.000000*%
%ADD21R,3.000000X2.500000*%
%ADD22RoundRect,0.150000X-0.150000X0.875000X-0.150000X-0.875000X0.150000X-0.875000X0.150000X0.875000X0*%
%ADD23R,1.600000X1.600000*%
%ADD24R,3.200000X2.000000*%
G04 APERTURE END LIST*
D10*
X80750000Y-327750000D03*
X213750000Y-327750000D03*
X213750000Y-61750000D03*
X80750000Y-61750000D03*
D11*
X147250000Y-118750000D03*
X147250000Y-123750000D03*
X128250000Y-95000000D03*
D12*
X138410000Y-95000000D03*
D11*
X133000000Y-118750000D03*
X133000000Y-123750000D03*
D13*
X114000000Y-190000000D03*
D14*
X108920000Y-190000000D03*
X119080000Y-190000000D03*
D15*
X116540000Y-184920000D03*
X110190000Y-187460000D03*
D14*
X138080000Y-190000000D03*
X127920000Y-190000000D03*
D13*
X133000000Y-190000000D03*
D15*
X135540000Y-184920000D03*
X129190000Y-187460000D03*
D16*
X169730000Y-123500000D03*
D17*
X172270000Y-123500000D03*
D11*
X137750000Y-118750000D03*
X137750000Y-123750000D03*
D18*
X93750000Y-320000000D03*
X91250000Y-320000000D03*
D15*
X93750000Y-250000000D03*
D18*
X98750000Y-320000000D03*
X96250000Y-320000000D03*
D15*
X98750000Y-250000000D03*
D16*
X87500000Y-225500000D03*
D17*
X87500000Y-228000000D03*
X87500000Y-230500000D03*
D19*
X94500000Y-232400000D03*
X94500000Y-223600000D03*
D11*
X175750000Y-275500000D03*
D12*
X185910000Y-275500000D03*
D11*
X175750000Y-199500000D03*
D12*
X185910000Y-199500000D03*
D11*
X128250000Y-199500000D03*
D12*
X138410000Y-199500000D03*
D11*
X104500000Y-247000000D03*
D12*
X114660000Y-247000000D03*
D14*
X138080000Y-294500000D03*
X127920000Y-294500000D03*
D13*
X133000000Y-294500000D03*
D15*
X135540000Y-289420000D03*
X129190000Y-291960000D03*
D20*
X106500000Y-159000000D03*
D18*
X106500000Y-164000000D03*
X106500000Y-161500000D03*
D21*
X114000000Y-167100000D03*
X114000000Y-155900000D03*
D16*
X188730000Y-123500000D03*
D17*
X191270000Y-123500000D03*
D11*
X109250000Y-171000000D03*
D12*
X119410000Y-171000000D03*
D14*
X138080000Y-142500000D03*
D13*
X133000000Y-142500000D03*
D14*
X127920000Y-142500000D03*
D15*
X135540000Y-137420000D03*
X129190000Y-139960000D03*
D11*
X109250000Y-285000000D03*
D12*
X119410000Y-285000000D03*
D16*
X87500000Y-206500000D03*
D17*
X87500000Y-209000000D03*
X87500000Y-211500000D03*
D19*
X94500000Y-213400000D03*
X94500000Y-204600000D03*
D20*
X173000000Y-263500000D03*
D18*
X173000000Y-268500000D03*
X173000000Y-266000000D03*
D21*
X180500000Y-271600000D03*
X180500000Y-260400000D03*
D11*
X171000000Y-247000000D03*
D12*
X181160000Y-247000000D03*
D11*
X109250000Y-251750000D03*
X114250000Y-251750000D03*
D14*
X127920000Y-237500000D03*
X138080000Y-237500000D03*
D13*
X133000000Y-237500000D03*
D15*
X135540000Y-232420000D03*
X129190000Y-234960000D03*
D11*
X194750000Y-275500000D03*
D12*
X204910000Y-275500000D03*
D18*
X160250000Y-320000000D03*
X157750000Y-320000000D03*
D15*
X160250000Y-250000000D03*
D18*
X165250000Y-320000000D03*
X162750000Y-320000000D03*
D15*
X165250000Y-250000000D03*
D11*
X109250000Y-180500000D03*
D12*
X119410000Y-180500000D03*
D11*
X128250000Y-152000000D03*
D12*
X138410000Y-152000000D03*
D11*
X194750000Y-304000000D03*
D12*
X204910000Y-304000000D03*
D14*
X119080000Y-142500000D03*
D13*
X114000000Y-142500000D03*
D14*
X108920000Y-142500000D03*
D15*
X116540000Y-137420000D03*
X110190000Y-139960000D03*
D11*
X175750000Y-304000000D03*
D12*
X185910000Y-304000000D03*
D16*
X87500000Y-140000000D03*
D17*
X87500000Y-142500000D03*
X87500000Y-145000000D03*
D19*
X94500000Y-138100000D03*
X94500000Y-146900000D03*
D11*
X147250000Y-95000000D03*
D12*
X157410000Y-95000000D03*
D11*
X189750000Y-251750000D03*
X194750000Y-251750000D03*
X175750000Y-152000000D03*
D12*
X185910000Y-152000000D03*
D11*
X123500000Y-251750000D03*
X128500000Y-251750000D03*
D22*
X120985000Y-218600000D03*
X119715000Y-218600000D03*
X118445000Y-218600000D03*
X117175000Y-218600000D03*
X115905000Y-218600000D03*
X114635000Y-218600000D03*
X113365000Y-218600000D03*
X112095000Y-218600000D03*
X110825000Y-218600000D03*
X109555000Y-218600000D03*
X108285000Y-218600000D03*
X107015000Y-218600000D03*
X107015000Y-227900000D03*
X108285000Y-227900000D03*
X109555000Y-227900000D03*
X110825000Y-227900000D03*
X112095000Y-227900000D03*
X113365000Y-227900000D03*
X114635000Y-227900000D03*
X115905000Y-227900000D03*
X117175000Y-227900000D03*
X118445000Y-227900000D03*
X119715000Y-227900000D03*
X120985000Y-227900000D03*
D13*
X133000000Y-313500000D03*
D14*
X127920000Y-313500000D03*
X138080000Y-313500000D03*
D15*
X135540000Y-308420000D03*
X129190000Y-310960000D03*
D11*
X133000000Y-247000000D03*
D12*
X143160000Y-247000000D03*
D11*
X128250000Y-285000000D03*
D12*
X138410000Y-285000000D03*
D11*
X109250000Y-280250000D03*
X114250000Y-280250000D03*
D13*
X199500000Y-237500000D03*
D14*
X204580000Y-237500000D03*
X194420000Y-237500000D03*
D15*
X202040000Y-232420000D03*
X195690000Y-234960000D03*
D11*
X128250000Y-304000000D03*
D12*
X138410000Y-304000000D03*
D11*
X123500000Y-280250000D03*
X128500000Y-280250000D03*
D16*
X154000000Y-140000000D03*
D17*
X154000000Y-142500000D03*
X154000000Y-145000000D03*
D19*
X161000000Y-146900000D03*
X161000000Y-138100000D03*
D11*
X175750000Y-251750000D03*
X180750000Y-251750000D03*
D23*
X90530000Y-93120000D03*
D11*
X93070000Y-93120000D03*
X95610000Y-93120000D03*
X98150000Y-93120000D03*
X100690000Y-93120000D03*
X103230000Y-93120000D03*
X105770000Y-93120000D03*
X108310000Y-93120000D03*
X110850000Y-93120000D03*
X113390000Y-93120000D03*
X115930000Y-93120000D03*
X118470000Y-93120000D03*
X118470000Y-77880000D03*
X115930000Y-77880000D03*
X113390000Y-77880000D03*
X110850000Y-77880000D03*
X108310000Y-77880000D03*
X105770000Y-77880000D03*
X103230000Y-77880000D03*
X100690000Y-77880000D03*
X98150000Y-77880000D03*
X95610000Y-77880000D03*
X93070000Y-77880000D03*
X90530000Y-77880000D03*
D14*
X194420000Y-190000000D03*
X204580000Y-190000000D03*
D13*
X199500000Y-190000000D03*
D15*
X202040000Y-184920000D03*
X195690000Y-187460000D03*
D11*
X152000000Y-118750000D03*
X152000000Y-123750000D03*
X194750000Y-152000000D03*
D12*
X204910000Y-152000000D03*
D11*
X128250000Y-180500000D03*
D12*
X138410000Y-180500000D03*
D16*
X87500000Y-187500000D03*
D17*
X87500000Y-190000000D03*
X87500000Y-192500000D03*
D19*
X94500000Y-185600000D03*
X94500000Y-194400000D03*
D11*
X175750000Y-285000000D03*
D12*
X185910000Y-285000000D03*
D11*
X109250000Y-199500000D03*
D12*
X119410000Y-199500000D03*
D11*
X194750000Y-133000000D03*
D12*
X204910000Y-133000000D03*
D11*
X128250000Y-133000000D03*
D12*
X138410000Y-133000000D03*
D13*
X133000000Y-161500000D03*
D14*
X138080000Y-161500000D03*
X127920000Y-161500000D03*
D15*
X135540000Y-156420000D03*
X129190000Y-158960000D03*
D16*
X87500000Y-159000000D03*
D17*
X87500000Y-161500000D03*
X87500000Y-164000000D03*
D19*
X94500000Y-157100000D03*
X94500000Y-165900000D03*
D11*
X180500000Y-118750000D03*
D12*
X180500000Y-128910000D03*
D11*
X175750000Y-133000000D03*
D12*
X185910000Y-133000000D03*
D11*
X109250000Y-304000000D03*
D12*
X119410000Y-304000000D03*
D11*
X199500000Y-247000000D03*
D12*
X209660000Y-247000000D03*
D14*
X185580000Y-294500000D03*
X175420000Y-294500000D03*
D13*
X180500000Y-294500000D03*
D15*
X183040000Y-289420000D03*
X176690000Y-291960000D03*
D11*
X194750000Y-199500000D03*
D12*
X204910000Y-199500000D03*
D14*
X194420000Y-142500000D03*
X204580000Y-142500000D03*
D13*
X199500000Y-142500000D03*
D15*
X202040000Y-137420000D03*
X195690000Y-139960000D03*
D16*
X122230000Y-123500000D03*
D17*
X124770000Y-123500000D03*
D13*
X199500000Y-209000000D03*
D14*
X204580000Y-209000000D03*
X194420000Y-209000000D03*
D15*
X202040000Y-203920000D03*
X195690000Y-206460000D03*
D20*
X106500000Y-263500000D03*
D18*
X106500000Y-268500000D03*
X106500000Y-266000000D03*
D21*
X114000000Y-260400000D03*
X114000000Y-271600000D03*
D16*
X103230000Y-123500000D03*
D17*
X105770000Y-123500000D03*
D14*
X204580000Y-266000000D03*
D13*
X199500000Y-266000000D03*
D14*
X194420000Y-266000000D03*
D15*
X202040000Y-260920000D03*
X195690000Y-263460000D03*
D14*
X204580000Y-313500000D03*
D13*
X199500000Y-313500000D03*
D14*
X194420000Y-313500000D03*
D15*
X202040000Y-308420000D03*
X195690000Y-310960000D03*
D11*
X109250000Y-275500000D03*
D12*
X119410000Y-275500000D03*
D14*
X119080000Y-294500000D03*
D13*
X114000000Y-294500000D03*
D14*
X108920000Y-294500000D03*
D15*
X116540000Y-289420000D03*
X110190000Y-291960000D03*
D11*
X118750000Y-99750000D03*
D12*
X118750000Y-109910000D03*
D14*
X138080000Y-209000000D03*
X127920000Y-209000000D03*
D13*
X133000000Y-209000000D03*
D15*
X135540000Y-203920000D03*
X129190000Y-206460000D03*
D20*
X125500000Y-102000000D03*
D18*
X125500000Y-107000000D03*
X125500000Y-104500000D03*
D24*
X133000000Y-98900000D03*
X133000000Y-110100000D03*
D18*
X140000000Y-107000000D03*
X140000000Y-102000000D03*
D11*
X128250000Y-256500000D03*
D12*
X138410000Y-256500000D03*
X185910000Y-171000000D03*
D11*
X175750000Y-171000000D03*
D14*
X204580000Y-161500000D03*
D13*
X199500000Y-161500000D03*
D14*
X194420000Y-161500000D03*
D15*
X202040000Y-156420000D03*
X195690000Y-158960000D03*
D23*
X204300000Y-77890000D03*
D12*
X201760000Y-77890000D03*
X199220000Y-77890000D03*
X196680000Y-77890000D03*
X194140000Y-77890000D03*
X191600000Y-77890000D03*
X189060000Y-77890000D03*
X186520000Y-77890000D03*
X183980000Y-77890000D03*
X181440000Y-77890000D03*
X178900000Y-77890000D03*
X176360000Y-77890000D03*
X173820000Y-77890000D03*
X171280000Y-77890000D03*
X168740000Y-77890000D03*
X168740000Y-93130000D03*
X171280000Y-93130000D03*
X173820000Y-93130000D03*
X176360000Y-93130000D03*
X178900000Y-93130000D03*
X181440000Y-93130000D03*
X183980000Y-93130000D03*
X186520000Y-93130000D03*
X189060000Y-93130000D03*
X191600000Y-93130000D03*
X194140000Y-93130000D03*
X196680000Y-93130000D03*
X199220000Y-93130000D03*
X201760000Y-93130000D03*
X204300000Y-93130000D03*
D14*
X175420000Y-209000000D03*
X185580000Y-209000000D03*
D13*
X180500000Y-209000000D03*
D15*
X183040000Y-203920000D03*
X176690000Y-206460000D03*
D11*
X175750000Y-280250000D03*
X180750000Y-280250000D03*
X128250000Y-114000000D03*
D12*
X138410000Y-114000000D03*
D16*
X154000000Y-225500000D03*
D17*
X154000000Y-228000000D03*
X154000000Y-230500000D03*
D19*
X161000000Y-232400000D03*
X161000000Y-223600000D03*
D13*
X180500000Y-142500000D03*
D14*
X185580000Y-142500000D03*
X175420000Y-142500000D03*
D15*
X183040000Y-137420000D03*
X176690000Y-139960000D03*
D11*
X123500000Y-175750000D03*
X128500000Y-175750000D03*
X190000000Y-175750000D03*
X195000000Y-175750000D03*
D20*
X144500000Y-102000000D03*
D18*
X144500000Y-107000000D03*
X144500000Y-104500000D03*
D24*
X152000000Y-110100000D03*
X152000000Y-98900000D03*
D18*
X159000000Y-107000000D03*
X159000000Y-102000000D03*
D11*
X109250000Y-133000000D03*
D12*
X119410000Y-133000000D03*
D14*
X185580000Y-190000000D03*
X175420000Y-190000000D03*
D13*
X180500000Y-190000000D03*
D15*
X183040000Y-184920000D03*
X176690000Y-187460000D03*
D11*
X175750000Y-180500000D03*
D12*
X185910000Y-180500000D03*
D11*
X109250000Y-256500000D03*
D12*
X119410000Y-256500000D03*
D20*
X173000000Y-159000000D03*
D18*
X173000000Y-164000000D03*
X173000000Y-161500000D03*
D21*
X180500000Y-155900000D03*
X180500000Y-167100000D03*
D13*
X199500000Y-294500000D03*
D14*
X194420000Y-294500000D03*
X204580000Y-294500000D03*
D15*
X202040000Y-289420000D03*
X195690000Y-291960000D03*
D16*
X192000000Y-102000000D03*
D17*
X192000000Y-104500000D03*
X192000000Y-107000000D03*
D19*
X199000000Y-108900000D03*
X199000000Y-100100000D03*
D11*
X189750000Y-280250000D03*
X194750000Y-280250000D03*
D16*
X87500000Y-102000000D03*
D17*
X87500000Y-104500000D03*
X87500000Y-107000000D03*
D19*
X94500000Y-100100000D03*
X94500000Y-108900000D03*
D16*
X154000000Y-206500000D03*
D17*
X154000000Y-209000000D03*
X154000000Y-211500000D03*
D19*
X161000000Y-213400000D03*
X161000000Y-204600000D03*
D16*
X154000000Y-159000000D03*
D17*
X154000000Y-161500000D03*
X154000000Y-164000000D03*
D19*
X161000000Y-165900000D03*
X161000000Y-157100000D03*
D11*
X194750000Y-285000000D03*
D12*
X204910000Y-285000000D03*
D11*
X109250000Y-175750000D03*
X114250000Y-175750000D03*
X95000000Y-118750000D03*
D12*
X95000000Y-128910000D03*
D11*
X166250000Y-109910000D03*
D12*
X166250000Y-99750000D03*
D16*
X173000000Y-102000000D03*
D17*
X173000000Y-104500000D03*
X173000000Y-107000000D03*
D19*
X180000000Y-108900000D03*
X180000000Y-100100000D03*
D11*
X161500000Y-118750000D03*
D12*
X161500000Y-128910000D03*
D22*
X206485000Y-218600000D03*
X205215000Y-218600000D03*
X203945000Y-218600000D03*
X202675000Y-218600000D03*
X201405000Y-218600000D03*
X200135000Y-218600000D03*
X198865000Y-218600000D03*
X197595000Y-218600000D03*
X196325000Y-218600000D03*
X195055000Y-218600000D03*
X193785000Y-218600000D03*
X192515000Y-218600000D03*
X192515000Y-227900000D03*
X193785000Y-227900000D03*
X195055000Y-227900000D03*
X196325000Y-227900000D03*
X197595000Y-227900000D03*
X198865000Y-227900000D03*
X200135000Y-227900000D03*
X201405000Y-227900000D03*
X202675000Y-227900000D03*
X203945000Y-227900000D03*
X205215000Y-227900000D03*
X206485000Y-227900000D03*
D13*
X114000000Y-313500000D03*
D14*
X108920000Y-313500000D03*
X119080000Y-313500000D03*
D15*
X116540000Y-308420000D03*
X110190000Y-310960000D03*
D14*
X119080000Y-209000000D03*
D13*
X114000000Y-209000000D03*
D14*
X108920000Y-209000000D03*
D15*
X116540000Y-203920000D03*
X110190000Y-206460000D03*
D20*
X106500000Y-235000000D03*
D18*
X106500000Y-240000000D03*
X106500000Y-237500000D03*
D21*
X114000000Y-231900000D03*
X114000000Y-243100000D03*
D11*
X118750000Y-247000000D03*
D12*
X128910000Y-247000000D03*
D16*
X154000000Y-187500000D03*
D17*
X154000000Y-190000000D03*
X154000000Y-192500000D03*
D19*
X161000000Y-185600000D03*
X161000000Y-194400000D03*
D22*
X187485000Y-218600000D03*
X186215000Y-218600000D03*
X184945000Y-218600000D03*
X183675000Y-218600000D03*
X182405000Y-218600000D03*
X181135000Y-218600000D03*
X179865000Y-218600000D03*
X178595000Y-218600000D03*
X177325000Y-218600000D03*
X176055000Y-218600000D03*
X174785000Y-218600000D03*
X173515000Y-218600000D03*
X173515000Y-227900000D03*
X174785000Y-227900000D03*
X176055000Y-227900000D03*
X177325000Y-227900000D03*
X178595000Y-227900000D03*
X179865000Y-227900000D03*
X181135000Y-227900000D03*
X182405000Y-227900000D03*
X183675000Y-227900000D03*
X184945000Y-227900000D03*
X186215000Y-227900000D03*
X187485000Y-227900000D03*
D20*
X173000000Y-235000000D03*
D18*
X173000000Y-240000000D03*
X173000000Y-237500000D03*
D21*
X180500000Y-231900000D03*
X180500000Y-243100000D03*
D11*
X114000000Y-118750000D03*
D12*
X114000000Y-128910000D03*
D11*
X109250000Y-152000000D03*
D12*
X119410000Y-152000000D03*
D11*
X175500000Y-175750000D03*
X180500000Y-175750000D03*
X175750000Y-256500000D03*
D12*
X185910000Y-256500000D03*
D14*
X185580000Y-313500000D03*
D13*
X180500000Y-313500000D03*
D14*
X175420000Y-313500000D03*
D15*
X183040000Y-308420000D03*
X176690000Y-310960000D03*
D22*
X139985000Y-218600000D03*
X138715000Y-218600000D03*
X137445000Y-218600000D03*
X136175000Y-218600000D03*
X134905000Y-218600000D03*
X133635000Y-218600000D03*
X132365000Y-218600000D03*
X131095000Y-218600000D03*
X129825000Y-218600000D03*
X128555000Y-218600000D03*
X127285000Y-218600000D03*
X126015000Y-218600000D03*
X126015000Y-227900000D03*
X127285000Y-227900000D03*
X128555000Y-227900000D03*
X129825000Y-227900000D03*
X131095000Y-227900000D03*
X132365000Y-227900000D03*
X133635000Y-227900000D03*
X134905000Y-227900000D03*
X136175000Y-227900000D03*
X137445000Y-227900000D03*
X138715000Y-227900000D03*
X139985000Y-227900000D03*
D11*
X185250000Y-247000000D03*
D12*
X195410000Y-247000000D03*
D11*
X147250000Y-114000000D03*
D12*
X157410000Y-114000000D03*
D11*
X194750000Y-180500000D03*
D12*
X204910000Y-180500000D03*
D14*
X138080000Y-266000000D03*
D13*
X133000000Y-266000000D03*
D14*
X127920000Y-266000000D03*
D15*
X135540000Y-260920000D03*
X129190000Y-263460000D03*
M02*
