M48
; DRILL file {KiCad (6.0.2)} date Tue Jan 10 12:42:19 2023
; FORMAT={-:-/ absolute / metric / decimal}
; #@! TF.CreationDate,2023-01-10T12:42:19+01:00
; #@! TF.GenerationSoftware,Kicad,Pcbnew,(6.0.2)
; #@! TF.FileFunction,NonPlated,1,2,NPTH
FMAT,2
METRIC
; #@! TA.AperFunction,NonPlated,NPTH,ComponentDrill
T1C1.700
; #@! TA.AperFunction,NonPlated,NPTH,ComponentDrill
T2C3.200
; #@! TA.AperFunction,NonPlated,NPTH,ComponentDrill
T3C4.000
%
G90
G05
T1
X108.92Y-142.5
X108.92Y-190.0
X108.92Y-209.0
X108.92Y-294.5
X108.92Y-313.5
X119.08Y-142.5
X119.08Y-190.0
X119.08Y-209.0
X119.08Y-294.5
X119.08Y-313.5
X127.92Y-142.5
X127.92Y-161.5
X127.92Y-190.0
X127.92Y-209.0
X127.92Y-237.5
X127.92Y-266.0
X127.92Y-294.5
X127.92Y-313.5
X138.08Y-142.5
X138.08Y-161.5
X138.08Y-190.0
X138.08Y-209.0
X138.08Y-237.5
X138.08Y-266.0
X138.08Y-294.5
X138.08Y-313.5
X175.42Y-142.5
X175.42Y-190.0
X175.42Y-209.0
X175.42Y-294.5
X175.42Y-313.5
X185.58Y-142.5
X185.58Y-190.0
X185.58Y-209.0
X185.58Y-294.5
X185.58Y-313.5
X194.42Y-142.5
X194.42Y-161.5
X194.42Y-190.0
X194.42Y-209.0
X194.42Y-237.5
X194.42Y-266.0
X194.42Y-294.5
X194.42Y-313.5
X204.58Y-142.5
X204.58Y-161.5
X204.58Y-190.0
X204.58Y-209.0
X204.58Y-237.5
X204.58Y-266.0
X204.58Y-294.5
X204.58Y-313.5
T2
X80.75Y-61.75
X80.75Y-327.75
X213.75Y-61.75
X213.75Y-327.75
T3
X114.0Y-142.5
X114.0Y-190.0
X114.0Y-209.0
X114.0Y-294.5
X114.0Y-313.5
X133.0Y-142.5
X133.0Y-161.5
X133.0Y-190.0
X133.0Y-209.0
X133.0Y-237.5
X133.0Y-266.0
X133.0Y-294.5
X133.0Y-313.5
X180.5Y-142.5
X180.5Y-190.0
X180.5Y-209.0
X180.5Y-294.5
X180.5Y-313.5
X199.5Y-142.5
X199.5Y-161.5
X199.5Y-190.0
X199.5Y-209.0
X199.5Y-237.5
X199.5Y-266.0
X199.5Y-294.5
X199.5Y-313.5
T0
M30
